<mxfile host="app.diagrams.net" modified="2023-09-12T09:16:07.350Z" agent="Mozilla/5.0 (Windows NT 10.0; Win64; x64) AppleWebKit/537.36 (KHTML, like Gecko) Chrome/116.0.0.0 Safari/537.36" etag="19DL3i2o4BpUcpiE5LWD" version="21.7.4" type="github">
  <diagram id="C5RBs43oDa-KdzZeNtuy" name="Page-1">
    <mxGraphModel dx="875" dy="485" grid="1" gridSize="10" guides="1" tooltips="1" connect="1" arrows="1" fold="1" page="1" pageScale="1" pageWidth="827" pageHeight="1169" background="none" math="0" shadow="0">
      <root>
        <mxCell id="WIyWlLk6GJQsqaUBKTNV-0" />
        <mxCell id="WIyWlLk6GJQsqaUBKTNV-1" parent="WIyWlLk6GJQsqaUBKTNV-0" />
        <mxCell id="WIyWlLk6GJQsqaUBKTNV-3" value="Mulai" style="rounded=1;whiteSpace=wrap;html=1;fontSize=12;glass=0;strokeWidth=1;shadow=0;" parent="WIyWlLk6GJQsqaUBKTNV-1" vertex="1">
          <mxGeometry x="360" y="20" width="120" height="40" as="geometry" />
        </mxCell>
        <mxCell id="y0BUq7JHcD8MuV5Xrz9I-2" value="" style="shape=image;verticalLabelPosition=bottom;labelBackgroundColor=default;verticalAlign=top;aspect=fixed;imageAspect=0;image=data:image/png,iVBORw0KGgoAAAANSUhEUgAAAoIAAAH2CAYAAADkq+1fAAAAAXNSR0IArs4c6QAAAARnQU1BAACxjwv8YQUAAAAJcEhZcwAADsMAAA7DAcdvqGQAAM42SURBVHhe7N0HfBRFGwfgfypJSCUQCEkIHRJ67x3pXRCRItJFUVREQUVsiPAJoojSe++9t9BDCiSkd9J77+W+fSd7GBCQTi77Pj/Pu5vdvSTc7M47s1O0VBIwxhhjjDHF0ZafGWOMMcaYwnAgyBhjjDGmUBwIMsYYY4wpFAeCjDHGGGMKxYEgY4wxxphCcSDIGGOMMaZQHAgyxhhjjCkUB4KMMcYYYwrFgSBjjDHGmEJxIMgYY4wxplAcCDLGGGOMKRQHgowxxhhjCsWBIGOMMcaYQnEgyBhjjDGmUBwIMsYYY4wpFAeCjDHGGGMKxYEgY4wxxphCcSDIGGOMMaZQHAgyxhhjjCkUB4KMMcYYYwrFgSBjjDHGmEJxIMgYY4wxplAcCDLGGGOMKRQHgowxxhhjCsWBIGOMMcaYQnEgyBhjjDGmUBwIMsYYY4wpFAeCjDHGGGMKxYEgY4wxxphCcSDIGGOMMaZQHAgyxhhjjCmUlkoiv2aMsWdGl5Lk5GTk5uYiIyMDWVlZ8hb2ounq6sLc3Bw6OjqwtLSEnp6evIUxxp4OB4KMsWeWnZ2N8PBwhIaGIiIiQgSChYWFyMvLQ0FBgbwXe9G0tbVRrlw5aGlpwcDAANWrV4e9vb14UIDIGGNPigNBxthTowDQ3d0dzs7OSE9PR35+PoqKilClShUYGRnBwsICJiYm8t7sRaNAOy4uTvy7R0ZGiuCbWgkpOGzUqBHatm0rWgoZY+y/cCDIGHtiFIC4ubnh8uXLyMzMhJmZGWrWrIlatWqJVqny5cvLe7JXKSQkBIGBgQgKChIBIrUYNm3aFJ06dRLfEWOMPQoHgoyxJ5KQkIBDhw6JW8FWVlZo1qwZmjRpAkNDQ3kP9rpRq6y/vz9u3ryJsLAw8d30798f9evXl/dgjLH7cSDIGPtPvr6+OHbsmLj92Lp1azRs2FC0/lEfNVb60C3jgIAAceuebh136NBBtA7S4BLGGCuJA0HG2GNdv34d586dQ7Vq1dCtWzdYW1uLW4+sdKNLe1pamvj+qIXQwcEBAwcOhL6+vrwHY4xxIMgYewxPT0+cOnUKderUQefOnUV/M24F1Cw5OTnw8PDAxYsX0aBBA/Tu3ZtbBhlj93C1njH2UDQA4ezZs6IlsEePHmJaEg4CNQ9NL0P9OSmQp4Dw6tWr8hbGGONAkDH2EDTy9MSJE2KwQd++fXk0sIajCacpGGzRogWuXLkiAkLGGCMcCDLG7kMjT2mQAU0STX3KjI2N5S1Mk1HfQGoVpLkGL126hNTUVHkLY0zJOBBkjN2Hbgnfvn1bjA6mgSGs7KAgcNCgQSLIpwEkjDHGgSBj7B6aMJpWDImNjRUBA/cJLHto8m9afYQmBqc5IRljysaBIGPsHppzjkYKd+/eXfQrY2UT3SKmIJBafxljysaBIGNMoJmkoqOjxYoU7dq1k1M1R35WMhLiosXfkJCeiyJVLtJiYsT7ko/Y+ARk5tMRRcjLTkNifDLScwrEZxQrQm56EuJj/zkmJbsQKuQitcTnqB9xCYnIEp+nOWg5QFoTmm4RZ2VlyamMMSXiQJAxJlBAQIGBpaUlKleuLKdqiNxUnP97Gkb074guXbtizC8nEZ3ljGV9e6Gr9L5zS0dUa9havB46djp2+0jhXn4krm37GoN7TMSC/T74J5aLx+kF4zCgS1t07NIVXds0woS/vJCYdxNLundD1y5d0FH6vOqN2ojPe3PCJ9jvLx+qQSjYDw4OFt0AGGPKxYEgY0ygUaS0Tm2rVq3kFA3iuwd/ejbCxJUX4ennhwW2UQhTNcNcdw/4+frC5a/RqDJ5E/ykbVdP7ML4xkVIC/RH4N0omFeviiIPDwTkyp8l1MQ7v+zFFQ8/+B2cg6CFS3EqpQXm+/jCz8cTl5ePQ/XpW8TnXTq0CaMbyIdpkHr16iEmJoZHDzOmcBwIMsYEWoEiMTERNjY2cooGMbZGdZN0hHtehWtQAhpMmor2xsZ45PoZRemIiohCYn5LjBlbG4a6fvAKyJY3PqBGHTSvkIvc5LK1CFOVKlVEEMi3hhlTNg4EGWMCjRimwMDKykpO0SC1+uGjPqaIubAWS35fg917nRGRk49HhW6FafGIiA5Hqk039OvaHlYWRvBz90LavfvDGQh1d8Kpo4dwaLsLkocNQ2d7PZSlMdQmJiYoLCxEdna26B/KGFMmDgQZY0J+fj4yMzPFesKaqFa/r7Bs/Q581iAF+xd9gw3u0SgoeliAk4ekSB+4nLmIgHA3HD51HWHON+B76So84tWRYBoCnU/j4J4N+GVnEHoPbINq+rrytrJBV1dXrBhD33lBQcnBMowxJeFAkDF2j6a2DGWFu+BWUDRScizQbsrXmNAhBB4eaSgskncoKS8ZYb43cfGODozSPHHlii/SdfIRkxMF78BYedBIVfSc+gP+XL8WS94swqE/ziLovpHFZQN93zxXJGPKxoEgY0ygJcioNTAhIUFO0RyFWf64sGUtli1chEWLfsbJ/B4Y2tIOutr/DnJykxIQ4heAyhO+x/IVK7CCHr9/g0HW2oj0DkR8nryjYIE2Yz9H+/jt2OoW98hbzZqIWoCpXyhNI6Oj88jelIyxMo4DQcaYQIGgqampRgaCJvV6oGN9G5jp5CI31wCN3/oCQxqbSIGgtFGKBQ3qD8CsN2qIfVUG5qjRqjfG966Pe6soW9ZF797d0d2hMvRVxqj3Rn+0c6gKY7obbN4cY7/sh7p6crCkpQMTx374uHv14vcaKj09Hdra2jA0NBTPjDFl0lJxL2HGmIQmR169erVYgmz06NFyKiurvLy8sHz5ckydOhVNmzaVUxljSsPVQMaYQK2BNWvWxK1bt+QUVpbRUoI0VVCFChXkFMaYEnEgyBgT6BYhBYIpKSlizWFWdtG0MRTw01JzFStWlFMZY0rEgSBjTKB+YtbW1qKVyNnZWU5lZVF4eLiYP9DOzk5UABhjysWBIGPsHgoEGzZsiKtXr4r55VjZdObMGVSrVg116tTh6WMYUzgOBBlj9xgYGKBFixai39jhw4flVFaWeHh4iBZB+p4rV64spzLGlIoDQcbYfailqFmzZmIwQXBwsJzKygJaV/jEiRPi9n/Lli15/kDGGAeCjLH7UXDQrl07ERAePHiQbxGXIcePHxcTSffs2RPGxvdmUWSMKRgHgoyxf6EVRoYNGyaWINuxYwdyc3PlLUxTUb9AauUdOHAgatQonlybMcY4EGSMPVSlSpVEMBgbG4sjR45wMKihioqKcPPmTTEAqGvXrmjcuDEPEGGM3cMrizDGHsvHxwcrV64UI0yHDx8uAkRekqz0o0s73da/cOGC6BdIQX337t3lrYwxVowDQcbYf6L1h2n5OZqIeNCgQeLWYvny5TkgLIXokp6Xl4eoqCicPXsW3t7emDhxIho0aCDvwRhj/+BAkDH2RHJycrBr1y7RwkQjTjt27CgmJDY3N+dbjaUETRJNAeDt27dx6tQpWFlZ4cMPPxTPjDH2MBwIMsaeSlBQkBhAQs8UEDZq1EgsU0ZzD9JDT09P3pO9bNT/j5YETEpKQmJiIkJDQ3H58mUxMnj8+PFo27atvCdjjD0cB4KMsWcSEBCAffv2wcXFRcxLZ29vf2/JMpqChqYn0dXVlfcuvShoosugvr6+nFL6paWlid+bbtXTutBhYWHiQf0333rrLdFayxhjT4IDQcbYc6FJiulWpLu7u3imIIX6DpqammpEIOjn5yf+BppEW1NQK2BBQYH496UlAel3pwcFgowx9jQ4EGSMvXDUWkV91ahfYWm3detWMUXOp59+KqeUfjTZN7W8MsbY8+JAkDGmaMuXLxdB64IFC+QUxhhTDp77gTHGGGNMoTgQZIwxxhhTKA4EGWOMMcYUigNBxhhjjDGF4kCQMcYYY0yhOBBkjDHGGFMoDgQZY4wxxhSKA0HGGGOMMYXiQJAxxhhjTKE4EGSMMcYYUygOBBljjDHGFIoDQcYYY4wxheJAkDHGGGNMoTgQZIwxxhhTKA4EGWOMMcYUigNBxhhjjDGF0lJJ5NeMPZHY2Fi4uroiIyNDTmFMc508eRJJSUkYNWqUnMKY8ujp6cHR0RG1a9eGjo6OnMqUgANB9lSKiopw8OBB/PHHH6hZs6acypjm8vb2RlZWFlq2bCmnMKY8ERER6N69O6ZMmQJzc3M5lSkBB4LsqVAguHbtWvj7+2Px4sVyKmOaa/ny5YiKisKCBQvkFMaUZ+PGjYiMjMT48eNRtWpVOZUpAfcRZIwxxhhTKA4EGWOMMcYUigNBxhhjjDGF4kCQMcYYY0yhOBBkjDHGGFMoDgQZY4wxxhSKA0HGGGOMMYXiQJAxxhhjTKE4EGSMMcYYUygOBBljjDHGFIoDQcYYY4wxheJAkDHGGGNMoTgQZIwxxhhTKA4E2RPJy8tDfHw84uLikJ6ejqysLPE6MTER2dnZ8l6MaYb8/Px7+TkjIwOZmZniNT04PzOloPMgOTn53nWdzgO6pqvPA5VKJe/JyjIt6Yvmb5r9p7t372Lx4sUiAAwICEBKSgpat26NSpUqYeTIkWjatKm8J2OlX0hICFatWiWCQW9vb5GvW7ZsCSMjI4wePRqtWrWCtjbXk1nZFh4ejj179sDLy0tc1+k8qFu3LszNzTF27Fi0aNECenp68t6srOIrHXsi1tbWuH37NtatW4dLly7B09MTGzduxM2bN1G5cmV5L8Y0g66urggCKT9fu3ZN5O21a9eKAlFHR4eDQKYIhoaGokVwy5YtcHJygouLC7Zt2yaeKQDkIFAZ+GrHnghdEGbPng0DAwM5BahQoQJGjBghgkTGNAnl2YEDB96Xd01NTdGvXz/Ur19fTmGsbKtYsSK6desGR0dHOaU4OBw2bBhq1aolp7CyjgNB9sR69+6NDh06iNfUotKgQQMMGTJEvGdMk1D+pe4MFPipW//odnCnTp1gbGws3jOmBI0aNULfvn1FAEiaNWuGrl27itvDTBk4EGRPjFoFZ82aJS4YJiYmoi8V3xZmmsrGxkZUbmxtbUWh98Ybb9zXMsKYEpRsFSxfvjwGDBiAevXqyVuZEujMl8ivGftPVGi6ubnBzMwM8+bNE53rGdNE1BJI+TcyMlK0Ak6cOBE1atSQtzKmHHQ9j4mJEZX9d999F3Xq1JG3MCXgUcOv0ZEjR8RgC5qaRVMUFRWJ35k6GPfp00dOLf2owO/evfu9W9vsxSsoKMDy5csRGxsrp5R+NH2Gq6urGAVPt4WpRURTUEvOpEmTRCHOSg+ajkg9Il2TuLu7i/OgefPmGpWnrKysMH36dJQrV05OYU+LA8HXaNy4cSIT/1crBE3dcuDAAXz00UdyCiM//vgjPvzwwyfqy0Kj4OjfmVox2cuRk5MjBlp8/vnncsrjrV+/XkxBRH1NWbGgoCCcOnUK77//vpzyaH///TcOHz6M6tWryymsNIiKikLPnj3xwQcfyCmPtmbNGnTs2JEHKJXg7++PCxcuYMqUKXLK4y1dulRU5rhC9BwoEGSvx5AhQ1RnzpyR3z2as7Ozqnv37vI7pubg4KAKDw+X3z3eihUrVF988YX8jr0MWVlZKqliI7/7b2+//bbqyJEj8jtGnJycVP3795ffPV7Tpk1VgYGB8jtWWtA1ia5NT2LYsGEqKfCX3zFCZSKVjU/Kzs5OlZycLL9jz4IHizDGGGOMKRQHgowxxhhjCsWBIGOMMcaYQnEgyBhjjDGmUBwIMsYYY4wpFAeCjDHGGGMKxYEgY4wxxphCcSCoKPmI9z+LZRM+wKHoTPidWYZRdRwwbNZO+BXSvOIJOPvLSHz+607cicnDxV+6wbGaCUxNTdHpx6vIlvYpzPfBz231YGhsKtJNa7fGsL8vI+DcHxjjYIDyJlKasRE6TFyEcyF3sHFSfzSg/cobQLecIYxNij/vg8NZxb8SY08tAueWfYevP1wN12Q5CbE4/EVPfPr3edxNDcfGt2vDyqI4r5kZG0j5LReFKEBS6EnMaqYPI8qnpiYwbtwHH2xyQ05+IdQz66sK3PDnmx1Rre9PuBacLKc74QvbKjCTPs/ESB/a5cqLz67RtA2+WLUVUxuVkz9TenQYh0Ung8VRjL18CTjz80i0ti0vXV+L87XhiGXwjkiFuKwjCL+21/3nml29Mfosu4TQa3ux7NN5OBMnPkRGZcA7aGtrJH+W9BgzBu/Z2qIyvZbyvpa+kUivWqsePt96HJ/dO5+kR4vBmL3XV/4spik4EFQ0S1jbaCEp6QzOO0Ujv0hOJu4r8c2tXlh0LgSJaWn4uegMrqsKpQ1aMDJ7AyvupCFNSk8LdMa+ac2ldEu0GvItjodIaXf2o2tmMA4eT0DP1UfhRfud+wlNZ66De1CMOO7PgbxGMXuZmuCr06FITElD8sGp2D32M5yj7AtD2DV6F1v8KP/Gwn3ZAGRumoWZKy4groC2FyHyxFEE1auLugFBuB2VhAxRmHbGLxExSJXybvTOyajy8WGRj0NuOWFGS1M4dpmJfYHyOXFlE2b3rkkHMfaK1MToRYfhFUt50B/bqu5An+E/4HJ8tqjI6Op1xDJPOX+GeuDExy2LD3uoGhi18BA8Y+T9t2zB+ogIxNLrA1OgO3GfSI8K8sKX7QxRrfF72CrOJ+nhehCL3uRVUjQNB4IKZ9+kPVqZm8H90GE4x+XLqRIDC1QyyERsWADCErLQ7pt56KarKzYVFWYgOtgXvr7+CAqNQYYoQEuoagcHOxNYZGQihxv+2Gum1boD3igKQ3SMnHCPEep0G4HJI5tA2+UUboZIkWJhFNzcclCrxWCMHRoFd89opKaXrCE9TBFys5IQEUjnRCDCY5KRI4JOxl4HawxdthxTs7di4+lUFErZV6XKQkwQ5U8/BAZHI/3Ba/Z98pEadxdB/rR/COIy8lCkbi7/FxXyc1IQKfK+VFZEJiKL877G4UBQ6YzroNuwzqhkHIqrV/2QrT6JG47Bdz3icHjh+/jolx24fDUQKWJZahXysjyw5pNxGDduEj6bt0G+PVeAjOQI+LrfxM3T1+FhaI2qberBWnPW8GdlShYifdzh4iLlx3VH4NaoGxxt5E33qQzb2rVQuWYm0jOyUBDpAfc8a1hXbYaR44cj7M5t3I1Pk2+xPUoWIryOYPGHdE7MwM/rziIoU97E2GvRAh36GyA+JV56rZIq775Y/xnlz4n4+MuVcE4q3uvhYnFl6yJ8Npn2n4sdbjGPCe5ykRB2Hss+on2nY/4fh+CbLm9iGoMDQQaT+q3Rq5IhElxuwC0mV06lWHAVDpw+hY9NTmPu2JnYEkxnuBYMTNrjm4POcHZ2woFNX6JLJdo7C+GeJ7Hyh88xfdERFFRxQK8W1cE3gNmLpwvdcvrQM5Df3mMEg3K60BZXtUic/usHfDVnDr46UgGL9nyKh98My0V2ZgGMdK1gZamDoOvXEJYcjrBAT1yJyYPduV3YezMSGfmPiwSNUavVOCw7QefEcayYOxwNTOVNjL0WKUiKLQ+HWjbQ0tKCjm5zzDlA+fMyju6ajx5W8m4PZYt+nyzHgYu0/3Z81LkajItvBj2EAazrDcWiY7Tvaaxf+B6am8ubmMbgQJBJqqB5n5YwNAiBq5svUvOAnOg78ItKRXaBFXrPW4sv3riB4+fu9cx/CFM4dJ6IpfuOYuuc9oCHE5xco5Ejb2XsxTGDpbUUaZVPQHyK3PSWGoOwBFtUrGIKAxEg1sH43/fh5OkzOH36Nwy0Fnv9S06SD1xdghCXURtV9b1x5lIoItxdcW7fGixffhoJVgk4c9kLidl58qARxkq/RL+t2Hu9CRpU15Oq7ow9HgeCTDCu2xmjHCshPykGwWlAdvQF7F2/BRvXb8bmzStxObcrhrWoKvYtyIvEtf2ULj32HMZZ30SRXqw86nYaig6VAX/369Jnleh3yNgLYYjKdeyhWxiAkxtXFufD5bvhol0b9tWtUF5P3u2hCpCZFIiLe4vz76r1B3A13QANereC+d1b8DOoiREL12LP/v3YT4+1s2DjfRMe8dmPuT2cj5QYL5zbI58TR5zgGcn3x9irlI6gm6exb3txHvxt5XnoDx+CzvYG0JIiQVVRLK6rr9m79uOkd4J0TB6SIj1xZndx+rHLtxGdUfxZwS5nsH+HvP9FP6TnPKpTYSEykgLunU+bD57BzdBUeRvTFBwIKoo2DM1t0bh7Z9Qw0oOFbV00btscVQ1pmzHqdRyGMR98hsHt6qBWh0FobZSC4Ns3cONGECqN+h/GN9WFlrY5GvbrBP0gSpcerrfhG5MLMxvps9q1QFVqjSlfCx2HtkaTOsbQypY72lduihHS55obPraUZuyJVHTsgdED+qNGfnBxPoy2woiPRqKPg7UUJhqjfq8+aGxlAO37mkO0Uc6kCuq1b4BCv+L8659piS7vfIrx3etAp5wVOndtjfZ1K6OcfARqd8WH3WvDREtHTgD0qnfG+Pa28jsdGFeyQ50m1ZHlI58Tnv6ITOG2cPaqGMC2RTNU1ZeCQffiPJjs+BH+N3sIakjXWy2YodHgHjAKlvOnyy14R+XApIo9ajewQYacbz0DI5Caawjb5k1RtVwGguXPuhEQgxz1lBJ2nfF+l2rFr6mbkGkV1G/niAL5fLpx2xehidnydqYxVOy1GTJkiOrMmTPyu0dzdnZWde/eXX7H1BwcHFTh4eHyu8dbsWKF6osvvpDfsZchKytLZWVlJb/7b2+//bbqyJEj8jtGnJycVP3795ffPV7Tpk1VgYGB8jtWWtA1ia5NT2LYsGGqU6dOye8YoTKRysYnZWdnp0pOTpbfsWfBLYKMMcYYYwrFgSBjjDHGmEJxIMgYY4wxplAcCDLGGGOMKRQHgowxxhhjCsWBIGOMMcaYQnEgyBhjjDGmUBwIMsYYY4wpFAeCjDHGGGMKxYEgY4wxxphCcSDIGGOMMaZQHAgyxhhjjCkUB4KMMcYYYwrFgSBjjDHGmEJxIMieSUFBgfyKMc1WVFQkHowpGZ8HyqWlksiv2Ss2fPhwNG/eHI0aNZJTHi4gIAAbN27Ejz/+KKe8XpRlcnJyYGhoKKe8Hh988AG+//57WFpayimPdvLkSZiammLBggVyCnvRsrOzUa1aNaxbt05OebzFixejW7duaNmypZzyelClhgpAfX19OeX18fb2xp49ezBv3jw55dE+++wznDhxAjVr1pRTWGkQGRmJTp06YdmyZXLKo/3888/o27cvmjZtKqe8Pvn5+eJZT09PPL8uHh4eOHLkCObOnSunPN6UKVPg4+MDc3NzOYU9LQ4EX6M///wT169f16haGGWXoKAgpKeno1mzZnJq6aerq4tBgwbhzTfflFPYi0YFyfvvvy8CQk2SmJiIqKgoVK5cGVZWVnJq6WdgYICFCxeiUqVKcgorDZKTkzFr1ixRWdYkwcHB4tylisXrruQ/Dfpdf//9dxgZGckp7GlxIMieCgWta9euhb+/v2jRYUzTOTs749ixY+jRo4doyWFMieiuE7Vmjh8/HlWrVpVTmRJwH0HGGGOMMYXiQJAxxhhjTKE4EGSMMcYYUygOBBljjDHGFIoDQcYYY4wxheJAkDHGGGNMoTgQZIwxxhhTKA4EGWOMMcYUigNBxhhjjDGF4kCQMcYYY0yhOBBkjDHGGFMoDgQZY4wxxhSKA0HGGGOMMYXiQJA9kby8PISEhCA4OBgJCQlISUkRr+/evYu0tDR5L8Y0Q0FBAeLj40UejoyMRHJyMqKjo8X7xMREFBYWynsyVnbl5ubey/d0PtB5QNd0ep+amoqioiJ5T1aWaakk8mvGHikwMBDt2rUTQWBJ1atXx8KFCzFy5Eg5hbHSjwq/xYsX4/fff78v6NPT08Ps2bPx8ccfo1KlSnIqY2WTl5cX5s6di8OHD6NkKGBkZCTOjXfeeQeGhoZyKiuruEWQPZHatWtj3Lhx8rti+vr6aNq0Kfr16yenMKYZKleuLPJttWrV5JRi9evXR/fu3TkIZIpQp04dDB48GBYWFnJKsc6dO6Nt27YcBCoEB4LsiX344YeiAFWzsrLC6NGjYWJiIqcwphm0tbXh6OiIQYMGQVdXV6SVK1cO/fv3R6NGjcR7xso6qsxTwNe1a1doaWmJNFNTUwwZMgQ1atQQ71nZx4Ege2J0YZgwYYJ4TbfQWrRogT59+oj3jGmaKlWqoFevXqhZs6Z47+DgwK2BTHHobg+dB+p837FjR9ENiG4PM2XgQJA9lUmTJsHOzg4VKlTAe++9B2NjY3kLY5qFWgWpawNVZqgVhArDZs2ayVsZUwZqFaTgjx6WlpaiywQFh0w5eLDIK0ajsGjEbWZmppyiWej3/9///gdPT0+sXLmSa43PyMDAQFx0KRjRdDSAKCcn577O5pqCfueTJ09i3759ePvtt0WLIHt61JfMzMxM3ClgmodmhVizZg3c3NwwY8YMNGnSRN7ClIADwVfM19cXp06dEoWnjo6OnKo5KLvQ705TblBrCnt6dNGlgnPUqFGoVauWnKqZaMoJGl1IeVndx0jTJCUliSljqM8rBTPs6dAUJHRn4K233tLoliTKB1u3bhXPSkQzQ2RlZYnvUIkVfKqYv/vuu4rs886B4CukrnWFh4eLDunqTupMOahF1cfHR9S8//jjDzH9jib7+++/4e3tjQ4dOmhsIMiej5OTE/Lz88WUOzQAR1NRJZ0qZ2PGjJFTmJKsX78ex44d+9dMAkrAgeAr5OHhIW5BderUSdyC4oJTeWjC1s2bN4u566jg1ORbwxkZGWL+yJ9++kncSuL8rDzp6en47bffYG9vj+HDh2t0S9KdO3cwdepUXLlyRU5hSkLXsAMHDihytDQPFnlF6PbJjRs3RLMzdUjnQlN5qDWQZu2n1sChQ4dqfP/AEydOiNtIdHub87My0YTEdKejXr163F+YMQ3FgeArQgFAbGysKDgfnLyTKQO1oJ05c0b0rdT02w/UErR3717RIsgBgDLRAKFr167B2tpaTL3DGNNMHAi+AtQSRK1AtL5p69atufVEoei28KVLlzBw4ECNbw2kkbY0jRC1BGnioCf2/KirC60z3rhxY55UnjENxoHgKxASEiIeDRo0uG9lDqYc1DXg9OnTYpAQ9afSZDQwgNYm7dGjh5h/jykPtQY6OzuLAJBauLlyy5jm4kDwFaCaM025Qsv4lIV549jTS01Nxc6dO8XKLJo+WvzcuXOoWLGiuB3I88YpE42wpSl3qDWQJ5VnTLNxVPKSxcTEIDQ0VPQNpMKTKQ91Ddi9e7dY07MstAbS30Kj3mmJNqY8NOL99u3bIl+3bNlSTmWMaSoOBF8ymmONbgvTsj18+0SZaJLWdevWYfr06RrfIkyDA+h2cN26dcXSVM8t+gg+nvonLgQmIF9OYqVbQECAmAuVgkBzc3M5lZU+TvjC9lOcyCuU3zP2cBwIvkRxcXHitjAVmv89SvQu1g6xhpHeeBwppKkdi5CZcBWLB9XHz1eL92CaiaZZob6BNLpSk9GUo0eOHEGLFi1QtWpVOfVRchF5azumNdCBnhQwUtCo3+It/HA0UN6uVoT8vAIU0XSmdzdhcJVeWOadh6ICXyzpaYm5F+Td7smA99Ff8GbNRhj1zQEEiVlQ43Hiu8GYtewQ/BLFTuwlodbAW7duiUEi3bp1k1PZy6dCou95fNtXV5xLdp3HYMWleCn1caRzKycfhf+x18PF4tDn3fHJSieEp8lJsqJCPyxsY4gqNb6EUxF9dg7uOm/AD5NGYKNn8T5Ms3Ag+JJQoUm3hKn23Lt3bzn1v7RAh8778POi28gtkpPUVIXIy04Xyx/RIzUjC/kP7sNKHbqVumjRInzxxRdyiuaiwQF0O5CC2vLly8upj2MKhy6f4tDdPDHXXJ7rLnzTvzZUBTnISEuR83EOCkVhIqn2Drb7HsB0Bx3kpKUiK1+FnPRkpKRmo6B4D1kl2NhJgWbMGVy+HgdRbyqpIBupKcn3zpVMbmp8YYKCgsQ1rWPHjtw38FVKDYfnhUO43GgfwqVz6drC6aibch2htK0wD5npqXJ+T0dOQdFDQz9VXqa8TzJS03LunVOqwnxkZxSfj0lJacjKzUNudiay8/KRk5mOlOQM5BbeX9jo6jVB/Qa7sWqtP/IeLIeKpM/LTJM/LwnpWXnSOS5vY6USB4IvCc2zRjPVU7/AOnXqyKn/bcAni1Hxfx/gV48cOUVCQWDkLez57h04NGmO5k0bYuCU73HkzoMFJCttaIAIBU6aPs8aTX109OhRMfK9Zs2acup/oRaJNMRFhCEsLAKxienILcjF3dN/YsrQDmjUtDkGfrEeHlEZ0p7kCubV/RInc0OxbeIwLHFOxbrJHTHgrVXwENv/UatlV7TQ1cb1A8fgllDiLCjMQuLxhejWpQOaNZPOlcZ18NH2JJQ4m9gzotZACgJpPtTOnTvLqeyV0NaBvoERyuXHIyo6HqbN26DnwIGoUZSL9Ft7MXvCADRtLuX3huOx+IIvUh6IvFS5yfDd/Aka0z5NO2PQ28twIT1P2pCPeLdD+P697mhE25q/i0X7zuLg39/jj/0u2PbTRPTtNAsHwpMh7X2PnvS79B39MfKl/TYF5MqpEikIzPI5iUUfDEFD6fxu3sQRI7/aCpfIPPkcZ6URB4Ivgbo10MXFRSy79FTsx+CP363w96/7kKQ+83LicPv8PuwPaI99t0IR6n0WM2rrwuXgMYSUPDtZqUITSP/111+YPXu2nKK5aJRodna26Obw5C1BWbjruQ/zxw3EwIFjMff3I/ALdcHew0GwG/gbrvqG4q8hlVCkl4oSRYmkGibsPouvO5hj+g4vXD75MZrLW+4xdUSftzvCSCcQ128G/dMqEXEIM34Ownt/noFvsHSuXP8NMR9Mw7EMeTt7ZjTwjVYSoa4B3DfwFTOxQYOuQzAwZynen/wxftvtgrsxqchLuIm/9/ihcpfPsPvwYRxeUhf7DlxBsFS5KtkqmO+7CpM3WmMt7bNrKSZ0vYtfV7uiID0IV855Ibf+d7gmlVmhofsxf1RfvPXJL5g9sh0mLNiFa3f+xsjqlrivR7C2Pio0HoVpk3SxfeNZpKrrYmm+OLj3LGIqT8LpO9LneexHt5hbuHTjNhK4q2KpxYHgS5CZmSkmkKaLJbUGPa1qo7/ARNd1WOaWIt4X5WQjMTcX+T16o4OllGBcFTXqShFgjg/Co8UurBSi/nQ04TI9NBnd1r1w4YIY8UyB4JMzRq1W47HinAc8PM5j7Xej0FiVhKgaDqjdsj7sjYAGbwxHi8q2MJSPeBqmjdqjr6kU+zm7wDOhuEaUFx4M3w590buOGQxpnmvbDujVZC+cronN7BlRi7Cfn59YIYkGvrFXz6x6K7z/lwt2zhuEjC1z8fXSPbgTGYeoyCvYtPJHfDptGqb94QSj1Ezkaqvua4FT3Q2Ec9BefE/7fPYtVp2OQy39AiSnpSLGsAhajetI1a+no1PeFA16DEGHm3uxzae4plWYmoxoU0tUbN8SDWiKUYvaaOwQhpjIKCQXF2esFOJA8AWj1kAaJEL9qWgFiWfTFqO/q4vTm3YgOE26CBcVITstBVpxMRDlXQ71FSxAjo4pjAyKj2ClC7UG7tu3D+PHj5dTNBfdDoyOjoajoyMqVaokpz4jfX0YZKYhIykdmYVAWmw4knOz8O/GAiMY/Wc3RFu0HtgcqiJfuN4OQkY+kC5VmAxjwhEjvRF9BxPD4Jtii0pUgWLPjOZBvX79uhgpzJPiv3pF1L8vwgd30wxg33o4ps0ejOparvAJLYRhjW6Y8fMmnHa6gitXpMfmmWhvY4b71vspbwbbzp9g1xl5n9O7sfzDTjAuLEBBSipUKenIknctpo9yUk3q8YsGlUOFKm3Q+W0TXDx4EpGZQK5UYShIjkduYjLSqG9uRiKikvShY2gInnK09OJA8AWj1hNqDaRlt1q1aiWnPr3qA2djlu5F7AiSTknTSmjSuDVq+R7Cb5t2Y/f6rTjhoQczx46oxdfkUokmXaYBFe3atZNTNBO1BFHBUaFChWdo3c5HWrwfLh+R8uxu6XH6KrzzrNBKJxG+p3Zi7bbd2H/uBqLTsv7Vf0hLuyoaN7eG78UDOHbKG48aDGza4A2Mq2uM5JhohGYAls37YYy2Dzbv2ovtu6Sf+dta3LD/GlK8yJ4R9Q0MDg4WFQJuDXw9CrMT4H9pPVb9RefSdhx3CYeBVQs4NGqCjobpCDh3AGuk80mcZ1f8kZp9f+9xnTpd8Hb8USxYL+9z+BQuBybDsHJNtKpWHTouh7CW0nefw63gBOTAAnUcqiM99DqOHriGkIzch/bx0zW1Qouuw9Ev3xWnIqTqW9W66FS9CnJvHMBfW6XPW70Z5+Ibol7juqjEixCVWjrzJfJr9pyoNZD60axevVq0BP33lDElFSAzPhMWzaSAz1QX2trGsLc1RYJUIHbs3g9t6tugklEUzp29hsCofNTs3B9vD20PmxcwlRt7sWgVERopPHnyZHE7VZPnj6RbgZcvX0b9+vXRrFmzp/pbCvPTERPqCy+fQAQGSo8ULVSq3QY9mpojPtwTbu5eMGk/DB2qOqJJEztUMFYhNVIHtXo3QhUdbVQob4ALZy8jLqUCGnarhwriU1XIz84FDCxgW7cWKuiXg5WlKfLLmcGuYQe0atIS3Zrr4brTZdzx8kVgel18+sdMtHuSQc7soWiqGOrmQC2BPXv2lFPLHrqTQ3/nxIkT5ZTSQ8egHHT1tRB06BCuBoYi06IxegwdhfZ1rFGnlhli73ri5s1bxeeZygbtHavB1LAQKRHaqNWnMazN66C1QyaOHL5QvE90MgqtHNG2rh0sKxkgJ+kWLl32lLZlwqRGTdSobglrE2N433KDp2ceanZpCNvy5eSWowKkx2ehSut2qGakDUMDE+kzTFFgVhvtOvZA+4YVUZgeIFUgXRAYZ4iO74zEoHZ1YVHKF1T6+++/8fbbb8PCwkJOUQ4tKXh52Ehz9gyo9YTmjNu/fz9Wrlyp8UuJsWdD3//Zs2fx888/a/Ri/JSf9+zZIyZEHzNmDOzs7OQtTClouiCaC3XZsmWYN28eatSoIW8pe2iWh6lTp4oWcKY8TZo0wYEDB8p0Hn8UvjX8AtEKEhQEvPXWWxwEKhSNrD148CCGDBkCQ8NnGQJRekRERIhbgrVq1YKNjY2cypSErmlnzpwR3QKUWEAypgQcCL4g1LBKy29RKwrPsaVcV69eFX0Dab49Ta4MUEuQp6cncnJyRF9XTV8ajz09ygM0DZarqytGjBghpzLGyhq+ur8gFAhSHwPqG6jpLUHs2ahbhPv06SMGV2gymjSY+hJRH0dbW1s5lSkJVWrPnz8v+odytwDGyi4OBF8QqjVT64mmjxJlz87JyUlUAho3boxy5crJqZqHWoKovxR1nu/SpQv0eN4HRaIpY06fPo1Ro0bJKYyxsogDwRdkyZIlmDJlCgwMeGI/JaLWE+ob2KFDB1SpUkVO1UyJiYli8mDqF1i9enU5lSnN3r170bRpU9SuXVtOYYyVRRwIvgDUN5CmWOjVq5ecwpSGlhOkVkBaRUSTWwMJjRKmQSLUGsiDnpSJKgM0YpymUuH+oYyVbXyGvwC0niz1DaRBAs8uBgc+64X2rb/DFTGhjwrZKbex6ZM3sf7BFfdfilS47/ge7/VqKVYPEI9PNyMgLlPezh6FWgMPHTok/s2ebu7I0iclJUVMF2JlZfWcS+PlI87/JH4aMQBT5h5AkEhLx52Di/Hnyi24FSsSXrIo7J7e8Z/83KknRqxyl7exx1mzZg169Oih8fmZMfbfOBB8TjTbPnWqHzBggJzyrPKQGFSEosJlWLgpTHqvQlFBJmKDvBDzShbML0R6fAFq9ZiEBWu2Ydu23zAuYz1GT1+OG3HpD1kCjKnRcoI0WIim2DAyMpJTNZN6lCgtj6iv/zyzlRchPysPKeGB8A7ZgRPXkqS0QmQkhCMyKhYZxUsDv2R5iPcvQp+FlJ+3YM3/psB690QM/voYXkkcqqFodaStW7di9OjRGj0ZOmPsyXAg+Jx+//13MQnpixkpbIChn85A0sfTsZFiQbXceHjsnYvOVauiKj26jsNPx6iNJRgHv/kTv34wFm+80UDa1hXfHjmPNVM7wrG6tF//PxBYWIQ8v7/QT31sw3YY9pdb8ef+ix5MLKuieu26qFu3HaYs/hI9gjZh+5lEZNO6kRfmFn9G1Rpo3OZnOItjUuF3fhd+6PU+pk9vL7b3/mAxLt6VNiVewa/j+8BR/bMnrUVIAq1oeRlf156D1asHifTajVri1xviwzQOtQYeP35ctJ7VqVNHowtOGvXs6+srWrZppOjz00bV2vXR3LYKXFdvxQ2KBdUSL2HxuN5wUOeNyesRlpgtbbiMuTW+xMqVA6X0anBsMR5rrp7FvO7SPg6dMeaXs0jI8MfhRRPRSn3skK+wz/1RoZ0hrKpTfq6PJq364qPvR8Py0K/Yf0vaFH8Hu78bXvwZVd/AJ3+cR4Q4xgebJv6K3+eMQuvWdcT2D/dEI4dW7QpdiwHqn1u/OfosuyklJsP71A780GeadC1oJ7b1/eg3XA4XH6ZxKAjs2LEjzxvImEJwIPgcqEM9ja4cPny4nPL8DBp9ilVfpeKzP87JKZJyFdFw8HycDAhAQIA79r/fFuU9zsA1uQA5aWdxMdkBs5ZegNOSxjj62Vs403gZTrmexZcF32PZ6SLo15mEveJYb1zbNg8dXDfiaIz82Y+kAwOznug7WBdBUaEoCFyDvj9VKv4dvG9g18w4fLDwmrRfEQpyA+Adfxc2g7YjwGUv3tRNxYW9ZxFRoS0++ns/XMTPvogFRRdw1D8JWYV5SItZjq3ZP8Pvjjv+GmGGNX9tR2TxD9Yot2/fFmuxUuCk6a2B0dHRYjm5oUOHirWyXwRt01po368vatgFYN8FPzlVUqE9Pl51AK5y3vgp7ywOByQjuzBXyht/YGfeL1LecMbSPl74esIXKP+tJ87+PRp1AtfiZGht9J25AhfFsdexpq0WIrw8EXr/qvn/oqVtgsr2vdG2SyL8fJxx+eIFuGm/h2v0OadmoFzeHRxxougtH5nJB3E87Q38vesGAs59j8jPFuF0VjZU1cZht/i5vrh5aDHecFmDg1FFyM/xg3dCNGq+uRM3d/2IGtm+OH3DA+nFP1pj5ObmilVE5syZw30DGVMIPtOfA9Wc33zzzRc7OEBLFw0+/xpvrfwZq0PUq/9pITnwMn5+0wSmplXRftSH2OgWgljRwtIG/d/oiiYNK6F2rVrQb/oZxvWtjiqWDhgwtAVu+wWhsCBfCh7pWEvUbNYfS27cQsgTRV3aUmGghTo1qkEn1BfnnWajqakpTC2t0WDiFmT6hsjBmw0c6g7GoD72KF/VAU2aWsBcJxbJadrw2joZPRpKx5jWx4QNW3DZJxsFYj30sfjyowYwMTdHkz6D0DC/AJq41uGFCxfEKOEX04L2+lAAQH0D6bYgjXx+cbRh5tAYXW2rQOfYKVxXtwpqSXlj8wR0a1CcNyZu3oor3lLeEH0QxmH2DEexPF+9hm1g1voTjO5iCfvqTVG3oRXCouMRcelvTOtGx9bAgLkLcNAjFqlP0IVCS/q55csbwN7cBPEeh/HLt4NQk/J0k6FYvPw0YhOS5eCtO0YNbYea1SugfP1eGNA8EMFh0i8nnZ/HZtC5ZIFqDm/glxuuCBLNiNXgWH8QBvSqBpsGTdCsjgMqFxVqXJ7euHGj6BvI8wYyphwcCD6jkq0nL35kZR+8v1APC/48hhwqGFNDcfvCEVxrfhjRBUlw3fUN+j3FdTrv5Gf4OHU1QguzEe21F9Mc5A3/oTD3Ak7urw3bigbQ1dOGzpidyM4vFC1ghVnx8N7wjhQCEpWUViAFeFKxJxV+BQVFKJSCVy3vbfifi1TIbw1EZn4INo5tAOmjygxqDU5OTkbDhg1hLgW0miw+Pl4suP/ee+/JKS+SNZp0aAI9u1CcvOQDyia4swWLXBpgyvYgKW8EY8Po+rB80rwReRUHr8TCbOoVJBZE49TPI9GsorztcVTZSIq5gmunm6GmnZQ/7dth7MqbyJWiT5GnQw7h22GNUbw6dAHypLwuVmIvyJP20YI23fY/8T7GRa5AcGEuEoKO4eMGYucygbo50KT4M2bMkFOUh/JBamoqPxT4oPlTlYoDwWdAGWbdunUYNmzYS1tBov6EX/Hl3d+whEYMa+tA18wUJuZayPXzxC2XO/B5it7uWoYmMLMvD4QEwf/6JVwNlTf8SwGyUhMQExGO8PBwHP3fzzhZuxna1jeBfr2m6H/iT/xytXhbeGQUYtJy5eNiECgVioePeiH8xmkcdQpBqI4NKkglu1FVUxhkpSLe9QLOeqQiU32IhqNC8+LFi+L7b9asmZyqmehvoQFPGRkZYnTty2Dq2BkjGlWDvo8TLkVLCXpS3rAxg2FWipw30pD1pANIdPRQrpIpyuvmId3TGdfcwhCZIm/7l1wkRxfn2UAfb+xevgyBPfuhTW1TWOsAuqf3Y5+HnKdjk5CRqx4WdRWHjlyGh0cwwg+uwBLfeqhZTTpAOpfMa5hAOzQEgdcv4FKwvHsZQBUB+v41fR7MZ0VzwFJAQIO+lPig+SJpJSEHB4eHbi/rD6oEPN8AOQ2mYk/t7t27qsGDB6sCAgJUUlAopz6vKNWeD99XbfLPKn5bkKuKPTxb1aZbP9Uq91xVtNch1Tf9HVWOjn1UAweOUX277lfVxbBQ1bGf1qh27nNXxdMxnptUoz5ZpboYnqzKl96G75isGrMpRPoof9Vfb9GxrVXt23+s+nbpWNXWO3RASSkqly1fqUZ1ov3kxwfrVL4xGfJ2yeUf/tnWspNqyApXKTFJdef4etXs1hNUH87qI7YN//wP1ZVwOiBRdenPD1SD2tIx01UffdRB9e2JUFV67nXVTy2+VznRLoW5qgSPTaqZnx9URdN7DeHp6an69ttvVSdPnpRTNFdCQoLqww8/VB0+fFhOeRGk/OtzQbXp+8UqJ5E5JRFXVctnD1eNmrde5RqdqHL6433VQJE3PlB9/HF71bcn76oy866pfmj6neoS7Z+fpYo4+oOq3xeHVTHS2+zI26ojm35WrbwapvI58btqag869m3VmDEDVd/uOqzyTaCDSopQbZ/QvDi/0qNFe9XA5S7yNkmCj+rAonf/2T5yrmrrjUhpw23ViqHfqn75YqyqW8+WYtvsgzGqHDqpVGGqtW/T/s1VrVt/qvr2f8NVG24nq3zP7VP9NXuvKoB2Sb2j2r1mk2rbcW9VOr3XAJmZmSqpYqu6du2aSioQ5VSmJAcOHFB9//33Kj8/PzmFKYUW/U+OCdkToH+u1atXiwlXp02bBgsLC3mLUiXD68RB7F2fh6E7p6CRnFqWUQvarl27xFQrdCvV2tpa3qJ5qHX70qVLWL58ObZt28bLyQke+GvYPpSfPhKDejpAs2/6P5ndu3eLifHnz58PU1NTOZUpCa2MRP2ER44cibp168qpTAn41vBTiomJwdWrV9GzZ0++YAp6MK5YFTUb2cJYTinr6DYirb5Bt1I0OQgktD729u3bxZxxHASqGcOuSS1YW5aXcnfZR6siURBAXV2eb1J8xpgm4kDwKdEKEg0aNBBrsL6oKTY0mzHsW/bCmK/7QQmzjuXn58PNzU30J3mxo2tfD5oCKSIiAt27d5dTGFATA74dizeaVYMSwiIa+V65cmUxDyZf0xhTHg4EnwLdDnZ3d0eLFi34lrBCUdDk7+8vbp3Y2BSPmdZUFMyuWrVKtAZy67Yy0QChc+fOiXWlzczM5FTGmJJwIPgUzpw5Iwp/uiXIi/ErDwVOPj4+Yj3eTp06yamay9vb+wUtj8g01ZUrV8S1rEmTJmLULGNMeTgQfEKxsbFiDdbmzZsrdnoFpaO59qg1kJbe0vS+gWTlypV46623xMTNTHloqhSq3NJyclZWVnIqY0xpOBB8QjSiTqx0UK+ecuca+pdcJIbdwun1VxElp/xbNK5vOgP34ATkyCmaiFoDqT8dDRTp1auXxi+/RWsKU4vg4MGD5RRWLA6uu8/DxSsKj1qxriDPF4d/Po4Q+b2munnzpugT6Ojo+ILWSmeMaSIOBJ8A1Zxv3bolbgm/vH5hSbi2ai4++WgLvMSEPirkZgTjzMofcOqVlDhZCLy4Fb/OnSFWFqDHgj2uiM8Q68E9Qh5SIrzgtMtFKj4fRSpY91zCnbtJUtioudT9QykP0EAhTUcrSLz99tsvsSWoQMobrtj+4zwskyoKNIc0kI3Qa3tw6Ng5BCWLhJcsEZf++Oxefp45ey42Ov/XD06A59Gr8PCPk37bhyvMC8CZP86DViXWVDRanCZEp4l0Nb2vK2Ps+XAg+ARu3LgBLS0tsZTYy6s5Z8D72HmcPvk9/jgVI71XoSAnBu5Ht8K1uBR9yXIQ5eGBiDRd2DVuhVZ1dOC27gRuRqdI4Z6yUWsg9aWj28L9+/fX+NZAmv+QKjbDhw+XU16GQmQmhOPmwR3Yc2ozznmnSWm5iPF2wvUb7oh+gnWBn186PA+eRoq9lJ9bNkM94xgc/vUoAuWtSkbdXChfU2ugkZGRnMoYUyIOBP8DDQxwcXERrUDUGvRyWaL/pA7wnL0AJ0ouIZefgqCLqzFj2DAx19ewj3/C5uuR0oYoXF67HzuX/oRPP31X2vYR1l11x5H/fYBxb0n7fbEPkUUq5N89iNnqY999H18f9C/+3H8xRvWm3TBk1DiMG94NVobaUEmFheCxAW+NGC59xpsY/e563ClO/UdONFz2LsE09c/58k+c9E6QN6r5YvsHk/CXUwoKoo5jjnrfd8bjo53e0vZMRNw+j42fLMHSpdPFts9+3Qp3iosloed+x5xp8jH0+GwLfFJzXvrC/unp6bh9+zaqVasGW1tbOVVz0cTRffv2fWnLI/5DD5Xta6BOpSJc3XQMIhZUS/XAjp9mYaz6u1x0XF6y0AOrR67EoUNzpPThGDfpZxy544p1M6V9xs7AD9tckZodjqvbfsEU9bFfrYZTQFLx5/5LJbQaIuXnsaPxZq/GUGVmFOeX9Ajc2P6dnJc+xv+23ICczf6RdB0rPp2Kt9U/549rxWsP35OL+KCj+OuTeTjuHYtbh5bhffW+ny/DEQ9qJw/Dqf/twp6/v8e0aaPFtqXn45ArN7Q7/ynvT49Rk/D5yqt42Y2l2dnZYsoYmi6GHlTJZYwpFweC/4H6UeXl5Ym+ga+iH03VLl9idkc3zN3sKqdIdIxgVbcz3pk+HdOnv4e+dkD0jUvwS89ApMcBHLyZgXod38HIJinYOv9DHMzrgBET3kQ11++w0bkIOhWaYrg4dipG924A1ZlduJYof/Z9YnBh/Ty8N/ANvPH2t/CsYgN7MxPoxZ7EV3/Got/kqZj+/lSMrO+OL9bdlo+R6ZmheoteGCt+zlh01o2Gv/tthN+7v+aLbdO/xNUKPdG6hhG0zRvhTbHv+3hvRHsYnNiIC/H5SI9zw/lz5xBfoT/e7dMIyT5XcNzZD5mpt3HiUhosmwzBxOk9UMEnERVr1oC5/sud8pdWkomKihKtwkOHDtX41sC7d++KkaK0esCrYGBZB+27dYdZkQsO37wrp0oMbdG6/whMEnngLdT3PISzwanILYrH7UMLsSm0LaZNfhcttY5g/hc/IbLJJLzZoQJSr2zC5YgKqNWmL8aJY8egfUEw7nj4IvqhnVB98Oe7Un7u1Q/vzN2Jcj3bwS4vCf5uF3DM06r4nBrugORoVxy7+UDTe/ma6DZyLKaKnyOdT6dXYn+kOhLMR3LEaaz9/G8kNh2MRlVNYde0J8aIfcehW/lEBLm5ISwrDaHO27Dnlh469nsXw+ulY936IwjOyYMq6gCWH7XBsOlTMHpofeBGHCo3qI2X3T5HrYF0TaPbwjyBNGOMA8HHoH401KGaWk7otvArIRWQvee9h9p/LsNB9QgMbX0U5aXD89BX+Oqr7/D7qjU47e6NMBHMVUPjNl3Rq98bGNqzITL1WqBT3+7o1Ws4xvcwwYXbEVJpXAXJl+nYb/DTL3/ixM3LuEMNiv9igca9xuKT+T/hp/99gg5BW7DnYgRSfZyx7ehaLPmaPuNrfLf5EDzOeaFkoyUFq0Wpwbi0g/b5Eau2bMQZj1DEiVag61j+/h8IbjgRU6YPQVNbfWgb2SL3Ju37Fb77YRmO3zgHdxEnmKGKbQf0GdILA4b0Q+ta1aCbmo4CqfCOzzSBXYMO6N6zFWqZWqF2bRuY6OngZbZn0DxrtAQbzRtYq1YtOVVzbdq0SQx2qVq1qpzykukYwrpZK3S0N0bKsQvwUrcK6ldAQdhhbPid8sAv2HViNy74ZCJfNEC3RP+RffBGj+7o3b4OkvXbYdCIPhjQsxsa2BXAJzIXRck+OLOFjv0Ja7dvwlnPCCQ+9HazHQZ8JuXnBT9i7uyBKL97PnbeTEeU+zGs3PAbFkj576tFy7Bp1zn4B8bgvo8oZ4UC33VYupB+zmIcdNqPi34UCBYgLWEPfpp0GBXeX4hJw1vA1twQqvRwXN1F+/6AvzdtwJnbwYhJpQ+qhdZdpHOyb08MHzMUNskU8BYB2eG4m10PHXp2R+f2DWFnUAH2NaxQjg55Seh2MOVn6hvq4ODArYGMMQ4EH4duB9KtYZoy5lXWnA0qj8T0URGYt/FacUJ6JLwuHsIR7fH4dcPf+HHGADQ0z0OBKDSNYWFqAkMDbejrl4O2cVVUNNODjnY5mFoYi2A2z2kBPnPvjwUb1uKPhTPQvWo2cvPFJz+gHCrY1EHjFq3RuvVIjBtWFQFx0chOz0Bmj5nYvG49NmzciC37TuL8wn6478ZivBfOX7gJf/sPsWzDn/hqbFtUN8qXCh7a2Ahv9bfG2W1X4ZObiUIqe678hHfO9MSPG9Zj5e9z0K9aFnJFZ0Q96W+xgDn9DeUMYGRgCDFGu4IlqiScx5JxvdHMcSSONe+Pvo2sYPQSF0Kg1sC4uDicPHkSo0aN0vi5IykvX758WQSCr3I5OW2DamjZ2hFa5bykSkhYcWLAIfx+Fmgw9icpIFuKqR3NoCcFR8W3XivCunI5KUiRcqSBMXRNqsLSWFv6nQ1hYKiHvIibOH7+DuIazMTvG5bji7ebwcZAymtSbPVvxrBvTPm5LTq2G4VBPYvg7BeFAhMbNJq8AFs3bMCG7ftwavsSfNrP4f7WOM9N+PqsNYZ9tQxrN/wP4xoUIkeMeNJBeaMOGNq1CBv+vIw4ujQk+uHyhavwtH4fv21Yga/Hd0JNY/U5aoYK0rmopyedoyZmMNbWLq682NmjmvNP6OXYBN3fXor0aR+hd2Xa8PJ4eXmJawIFgdwayBgjHAg+At06oVsoVGDSSiKvtuZsjNaffIdh177HH9QZrygfOSqpRKnVEu3szKCVnojw+5rjHk+VFY+EGm3RtbY9Kqui4Bsqb3isVAT6BMDCxBS61WujybkTuKFfVxQgDvXrobat+f3rsBbkIEOvHExqN0draz1kJqYh7l5np/Kw6vUxlo6Nw48rLyAlXYr4MmMRUb0tutWrg2o6EfD8rx78Qf6Ibz0Cc7Yew5lTl7Bn4Ug4VjGE9kv8WnJzc8U8a3QLzd7eXk7VXLt27RLL4tEo0Vebn3VRsWk39HcwR4bzKVylvJubikQLO9Sr1whNLNIQFCLl8ScdlVSQhfRy5VFBymutqmgjNS4diaLl7XFUyM+LRZCU+a3t7GAqndcWt7wRX0nKz5Sna1eDlZnB/RfE7CTEWtVHi3oN0NA4Brf81JGmFnQMbdF83ExMbXIB365yBwpzkClVFIyk36lNVQPkJqcg9qHdL0q4ehHRc/bg/KnTOHHwEP43qQlMX2Jdg1oDqSJgbGwsrmmMMUY4EHyEoKAgMWUIzbj/OubYMrJohQ8m9UU6tdyZVkYtx7qotKYbKlQdjvm7IlChafF+T0Kv2yRMuTEUFSo6osdUP1TpKW/4lzDs+2EUWlQ1g5lZHXxfOBXT+9RHxQbjcfCvWvi8jZVYhsrMyhaNvrssHyOrUgetbHUQ+X1bWFT7CJtvx0lBobyN6JugyYQ5+DD0K0xYcws5nafhJ/+3YWlhg8ZDvGDTX97vUcwroPDc35jRp6VY67lutSqYuNEfKS9xckLqVE9rS9Oky5reNzA5ORlHjx7FoEGDRCDwqmnrVUTbdt3QslV95FIrmWMPjMIJzO9fB+Z1NiGxZjb0nvTXqtoAHSpn4faXLWFh/wUOhCSi/CNn9LmJL5pRfraAffN34NZnJz7vZoMWvd/G8AZX0bcmbZMencZjyZkH5mlqMRQfpP2BIc1sYOZ4GhZ9RPNeMS1tGFrXRq8Rw1Dv1Kf41sUIzeyNkfxzB1jYTcPqa7EwrS/v+yg21ZD5Ux+Rnx0dpICzXRf8flPe9hJQa2BCQgKaNm3KSwoyxu7RUtH9L3Yfqjnv2LEDd+7cEX3YXlnBSV/FfS01KjmpOO2+r0pK0qL/UVKJQ+7/COn44r3EhhJHP6JFqPjn/UM6tuRnPWJbyZ95/+/4z88uubOqRHrJj7z3O1Gi/FLNe/uH+MPfHm+Pfh+da5UHri1Eg321cOqrQbC1ePFLY1Ee2L17t5hr7a+//pJTNdfatWsRExODadOmwdLSUk59BUp+90R853LeeeD7V+cXykP/5E/Kd//kNXpfnDkoXSQUk4/9l0f8DOGBbQ/Nf0/wO4o8XyL9HvXPKvl5Enl3nJxeDgsdvXDug1pAVjxuHfofPo58E06z2sh7vjiUn9etWycGPs2aNYtvC7N/OXjwIDw8PMRAMuoTzZSDWwQfguaMCw4ORvv27V9t64lcsPxDKkhKpNHrew91yfLAIfd/xL29xIaSxz/c/fvcv9ujt93/usQ+ctqDO5dML7n/PSVeqjm+8Raq+x3B2GbWojXDtLcnPp/cBRVfQhBIqB8VTbo8c+ZMOUVzUcvm+fPnRX6m1q9XquT3SsR3XfJ1ice95JLHlNhfuLfXQ4/9l5L7PLjfA9vuKbnTA/vc++kl9n8w/cF97/+h4iOF3rOWQXtOs+L8XKUpxi2viF9fQhBIQkJCRH9XGvTGQSBjrCQOBB9QVFQklt+iWyidOnWSU9lrV7Ezvth2EXfT08W8funp2/Bevcp4Wcvk79mzR9yyo2mDNBm1UB05ckSMeKY54zR9wEuZUnMazt7Lz1HwvDIbreRNLxK1BtLAt8zMTL6mMcb+hQPBB9CtE1pTlkYKm5uby6lMSWiQyJo1azB9+nQ5RXNRkEEDXtq1a4cqVarIqUxJaO5IWhWncePGL3FJQcaYpuJAsISCggL4+PggIiICffr0kVOZ0pw7dw4VK1YULYKaTj1nHK2Kw62BypOfny/6OtNgoe7du8upjDH2Dw4ES4iPj4ebm5sYKVy58kue0IuVSjSB9PLlyzF79mw5RXPR33L16lXRL4ymjGHKQwOEaLQwTYHErYGMsYfhQFBG/WjoFkpYWFgprDnnIyMhHL7OISi5XCt78U6fPi0679OtVE137do16OjoiEDwdUyB9HhpCHPxw93YNCl3s5eBrmnqQSI0fyRjjD0MB4KytLQ0ODs7i071NWrUkFNfh2jc2LoVO11KrnuahUiP89ix4DgemOnsBclDQuBN3PLwQVyWnKRAWVlZYpqVTz/9VE7RXDQwgFoD6Zbw683POUgMdcepw+fgdrdkNeYuTv+6E+dcwu5f1u2FyUTghT1wjiiQ3ytPUlKSuMNRs2ZN8WCMsYfhQFCirjnTyLqhQ4fKqa9Hmtdm/O/nnzH3qyN46HLAL0UWAi9uxq59x+H/X6shlGFXrlyBkZGRGCik6Tw9PUWfVxr1TH/T61KQHgG3kyvww7d/Y+uhO/jPBUBemARcWDId611f4ozjpRhd0wICAsRjwIABcipjjP2bznyJ/FqxqCXo2LFj0NfXx5AhQ+TU1yEVl39eCP/Bk1HzyDbkDH4XzcW0b7lIDPHDnRt5cBhWE2nXT2P39oM4KwUuV0KzYGZphcqmKXDZ5Y67Mddx8PgpnD/vD93aVRFzaAU2H78G95jycKhvgcygy9i+eidO0bHe4cg0qACTBDcc3bkD5+/EIioKMLGpBKuKxvcvIVfG0Vx7P0sB+NixY8U0KyXnidM01Bp4+PBhMeq9a9euMDB4WZPs/JcCJAa44cYVN2RXtIVJRiYqtW4DW3GXOg5ue32g3dgB9a1TcH7LLhw6fQ6XKF+mV0bHOhWQnxOIcytuICLnCnbuvADfu6ko0kmF6/7NOHD9LrLLWcLGLBVuJw5j34HjuEDHxuqhtq0BQk9uwqa9Z+GbooOkgBzYdKgNJc0BQINDKA9UrVpVrC3N2H+h2TJiY2NFV5JXOuk8e+0U3yJI86xR5qf+VK83CJQku+DAnXoYPnQoxr1VgF3Hg+UN9ysqKkBBfj7y89MQcOk0rrj6ITEvClfWLsfaI7cRl5aD+Bub8f1387DfKxe5ORG4sGYBToeopIML5WOzEOPrikunnBCSWYTCQnpI2woKpM8vsTqCQjg5OYlRtdQ3UJODQEKDAygQoAECr3UKpII0REdGILKoHca81RSm5km45fuwJuciKU8WiBGu+flxuLx6Da4nAXlZntjz3ULsdEtAdnIEnPf9hv+t2g6XyAyE3zqJkydOIzBJJWVp9bHJuH1wL64GxiMrT8rHIrtTeuH9q4OUcTQXKk2DdevWLW4NZIz9J8UHgnl5eWK6kGrVqsHR0VFOfT2Sbh6Bb4P+aGdRAS1Gj4D29o1wTpY3qulborJ1ZVQwikd8fAKSfS7hpmcQotPFRlRuNggffPIF5r1bB9ec4tFw4hx8PWcO3q0fhFMeWTCqVA+1KtOx8UgM8YT/LXckWbVH586t0KFzT7w7Yxy6OVrj9d1MfPWoBY2WFKSllTR91QXKz9QvjFbEoZr965SfGo+oiCDk1O2Eti2boqaJLiKv3EREtryDmokDGtbIQWY65ctEpN/ciiP+xZt0DCqicb+p+HrWZPRuVB5hqdYY8NE3mD26LSoUhsM/uSLs7Qyhpyo+H1JvH8V573zUHDAWPWsaofmI2fjqq354nb0kXzVq3aZuDvXr14ednZ2cyhhjD6f4QJA6VNMtFLolSCMsXx9/HPzjFPyur8InEybg/QUHEeG5F7tvPtCCkhKMy+cv4HxkedRt2gh1bHWgys9Cnhh6WR0OdaxgaKADUzMLaFXpgOb2tNyVOWyrV0JKfBQinPdj5ZUC1GjaBA61LWGIVGQ9WDArDA2qoNunNOGups+1FxQUJIJ8qtS88uXk7pON+LsuOL56H05sX4APPvoeG7btxeWb1+ER8cCIpKATWLwnGDp29dCkaQPYGcciKYU26KCcfn00rGcCXR1dlLe0h4WNA+wt9WFqXhHlyusjO/QKdh9zRbCqChybNkSNSrnIzspHYaH4ZMWhOxzR0dFijWyq2GhrczdwxtjjKfoqQbdQ6IJpa2sr+oW9Vj6nsTqxPWbOGIn+/fth4MCJmDm5Ns4fd8Z9oWBWPMIzVTBp8TYmj+iC+pVMocqVt/2XghykJ4QhqsZwTHtnIDo7VIJKlMnlYWJmjPImYi9FoVvh+/fvF/2oNH0lGWoNdHV1FYV/69atX+8t7uxURPh6wavyYHww5U306zcCk8YPRLUKOfD0C8d9oWC8J67rtcabI8bhvf51oUp7it87NQy+BVXQqPtoTBzSElb6BoAIAiuhso0OtBR2haM8cPz4cdEaTDMgMMbYf1F0IJiTk4NNmzZh8uTJr73m7HlqN7S7DsHY4SMwfPhwDB8xHEPH9UWdC8dwM17eiVjao2EVIHrjdAwctAiHvGOhVUne9l8MyqNivcaoc3UOBvf/CL9sCYS2uGemhxq1GyBDCkY/HTML6y76v8LRna/X9evXRSsgTSJOg4U0GY18p3kwS0Nn76yURPh7uaDWsPEYR/mZHu+NRK9K2sjw8ENUyUjQoRtGFOzDl+OGoM/wcyhq+hQ9+uwao5NxII7+MA79h27EncI0aIm7+0bo0K0nzv70Jvr0+R1uYueyr+QdDm4NZIw9CS0V3UtQqK1bt4rbgr/99hv09F7vGNm08FuI1KmFetYm0BYNIioU5iXhrlcSTBrURPnsJCTEFMKynhT1JUXjbmg4knONYWJSBKNK1qhcoTzSApOgZ1sJFiYG0Em7i5sRemjoYA1DFCEzxg+RujVQwyQbkX6+iM4qJ26HmllJjwo1YamVLAURdxGVpAubuvawtiz7o4apNfCzzz4TC/H379+/FE66/OSodZsCAMrPn3zyyWtfV7gwLxMJUcHIMasHewt1gJ2L5IhYZBQZwdLGCBnBSdCqWAEWFrpICfRGaGI28osqwcoqAdqWbWFvLOV/jwxYNq8Gk4IcpCTEIjrfFLXtLKCdmYjYtFzom1aAXmo47kYlICPfXPqsLOhXrA876XzQSw+Ds280ilRWcGhbE6/zRvmrQHmAKrY0DdaSJUs0ftATe7UOHjwIDw8P0aWgbt26cipTAkUHgm3btsXKlStFaxBTHuoWcOTIEUyaNElc+DS54KRVcXbu3Alra2u888473BqkQDQNVt++fbFq1SoxfyRjT4MDQeVSbGlBS4lRq8nrHlnJXh/qS0VTrNA6vJocBFJLkLe3N8LDw0VfRw4ClYnucLRo0eL193dmjGkUxZYYP/74I+bMmfOaRwqz14VqvtRHtEGDBho/ZQytJUuBIP0tlSo9aYdRVpbk5uZi2bJlmDlzJlcEGGNPRZFXDGoJqlixohhZyZSJRgpT4KTpq4gQGiDi4+ODPn36cL8whdqyZQu6dOki5kNljLGnobg+gnQbjfpAjBs3ThScTHloHV6aQHrYsGGin6gmo1GidEuQJsWmgS9MeegSTkEg9Q2krg6MPQvuI6hcigsE6RYaLbs0evRovi38jNLT08XtJ029pUpLsHXv3l3kAVNTUzlVM9HfMmPGDHHhft0jhTUVLa1ID5pGSBNvqyYmJiI1NVWMGGbsWXEgqFyKCwQDAwPFQBFam5Q9PWpRPXnypJhqpWvXrnKqZqGJo6kFxd7eXk7RTHTqRkZGimljOD8/O39/f7EiC80eULVqVTlVs9A66XxbmD0PDgSVS9HTx7CnRy0nP/zwgwimqGM6Y5ru7NmzcHJyEpNe861VplQcCCoXDy9jjDHGGFMoDgQZY4wxxhSKA0HGGGOMMYXiQJAxxhhToISEBBw9elQstUqDAF1cXMRSlfT+zp07PAhNITgQZE+E1jGlJczokZaWhpSUFPE6KipKTCfDmCYpKCgQ065QHo6Pjxd5OiYmRrynuRlpUBRjZR1d12nWgenTp+Ovv/7CoUOHMG/ePMyfPx9+fn5iZgJW9vGoYfZEaBmzb775RizLRiPL9PX14eDggMqVK4vJuWmVDsY0BU3ATaOF9+3bh+joaMTGxorphCwtLTFixAh069YNBgYG8t6MlU1UIaLRwrNnz0ZwcLCcCnFNp2CwRo0acgory7hFkD0RY2NjsZQZTVp769YtODs7Y9u2bbh9+zYqVKgg78WYZtDT0xOtfhQMnjp1SuRjag25cuWKKBxpO2NlHU2i3qpVK/To0ePeZOo2Njbo16+feGbKwIEgeyJGRkZiCbOSBSQFgDT3mrW1tZzCmGagFu3mzZujd+/ecgrESkP0vkWLFrzqEFMMmkSdAsGaNWuK9z179hTBIZ0jTBk4EGRPrFOnTujVq5d4TTXJhg0bYvDgweI9Y5qGCkAK/NQrzNSpU0csPUjdHRhTCrqWt2/f/t5qS3SNt7W1lbcyJeBAkD0x6jNFfUmoVdDExARjx45FpUqV5K2MaRbKx61btxYtINQCSK0ibdu25dZApjjqVsFJkyaJc4BbA5WFB4uwp5KdnS06EtPgEepTZWZmJm9hTPNQf8A9e/Zg8+bNmDhxolizV91XiikLrds9a9YsREREyCnKkpycLKaLsbCwUGQfWVqre9myZahYsaKcohwcCD6D7777DseOHUNubq6cohyUXWjKmLy8PEWOKFO3hE6ZMkVO0XxUAEyYMAEhISFyirKop0OiApC+X6Wxs7MTBaC6j5hSeXt747333sOqVavkFKYkdF2nxo3q1avLKcrBgeAzeOONNzBz5kw4OjrKKUwpaPJVKjBWrFghp2g+mj+va9euOH78uJzClOTdd9/F0qVLxSAZJaMJlKdOnSpGjjPladKkCQ4cOKDIBg4OBJ8BzTH266+/ilGHTFm2b9+OCxcuiJn3ywqaR4/ytK+vr5zClIQGyCxatAgtW7aUU5SJA0FlU3IgyJ1hGGOMMcYUigNBxhhjjDGF4kCQMcYYY0yhOBBkjDHGGFMoDgQZY4wxxhSKA0HGGGNMo+UjOcwLbtcv4/Jl+eEXh4LC4klBVKoshN8usc3ZDd7RqchOiUdUWATS8sVuMumz7no/8Fl+8L96FVfU7+XHdRdXBMckIMitRLq7D8KSsuXPYpqAp495BmVl+pjc1GgE+d6STlrAsFJ11KtbG9am6hnlUxFywxPB+tXQroENjPSLl92K8zqJu6ad0NLOSLyni0ZGQhxiIvJRvmoRon38EJslb6pgjyb1aqGqeTk5QfPx9DGaISnACW4hmcgvBCwcu6CtvTq/FkqFXzi83SOhVasRmlczFalZ8cEIT8mDWZXaqGKiK9LoHAi+FgPDRpWR7+8G37hciHJVWwflqrdA93qWxbtpOJ4+pphmTx8Th2PffIhlFyOQb2gOA51sRJi2x7fTxqF3l7owLPDB/7p2xVb9lrA1lHa3sEfLkVMxprwXjp8NR7NPv0TnewtqxOHEtx9h2fkw5BpaSJ8lJXXujO7Xr+NCXh4K4+/gbEIV9HSoCGMra3QcMADhv32K8+UcYEWXevu2ePvdiRjX1kZ8mqbg6WOY8uSmwvfyfixbugirNm7Euo37cdU7HOoYLjvyLNYtmINJH2+BV2IWiuT0u3s/wvTVt5Epv0deEnwuH8Bf6y7gtvNBrPzuKyxZtREbpc/cePwGghPUn8jYK5LgjfW//4zl69ZiA+XtzecRK28qyktBwKUVmDPjW/yyzhkpcnq6/yms27AeRz3ipKqNLOkKlv68Hx4xQTj2wwzM+7348zZu2oxdLjHyToyVFjbo98lSbDl4DMeO7cbvrf3w/Uc/4WyEVBuSinoDk1b4dANtkx5b/8L3g+oWH/ZQNujz0a/YfEDe/8svMUsKko5Irw9/1w/GQxaI9F0b/sKI+oawbTAE322V9/1rnsYFgUrHgaBSpd6Ft08oUpt9jdU7duB/k/qjnmkOcsTGbAQccUJ2p+7omHoDV8LSkStHgk0GvouiY4fhkUHvCpEVFwo/7zso6tYadjCDY5d38cPaHdghfeaO+e+hY20LcRxjr4z/fqwK7Y4v/tyI7VI+/Mg+CYliQxGyk6KlCpAvKvdujyq+F+CWJDagct3GqFKgg7veQUgUkWAWQk+eRFjbhqhtbgo91MSoXzYU5+utm/H36AbiOMZKp4ro+ulPGF/+MLY5UXVHhfzccDjtWIM1azZi18ErCHtsHZ0aCg5j+wbafz9cozJR8Mh7h/lIjb2DU9to3604evEO4pS3+qpG40BQqYwqwtbWCkYhe7Flz2nEV66Hho6OqEDbsgJw2bs8GrUegAmjtHHm2l3k5lKtUsowDQdiuO5xHL+VJsWB2YgJvI1b7kC31tXoQER4X8SOv5Zi6dK1OHojCMl54jDGXh3rNuhpdQcH1izHTpcENBw7FmIxyKI8pMf54lZcM4x6uwPq147DFbcEcQgq1UOLqoXIjfBGWLyUaTMDcPhgBFo72sPchO53xeLy1j/x29Kl+H35XtyRsj9jpVs9NGqng7z84otwUWEGIgO84e3tg4DgaKQXiORHyENyVAj8fWj/IMRlFqDokYFgEXKzEnHXj/b1Q0hkIrKKiwumITgQVCpjazTt1BsjWpsi4vphrP/fKhy5Hgwq3zL8b8DPtDZqWtdC53eGQefMEbjG5Ijbw9o6Dug9uTo8j7khKSsFodLJH1KlF1qLOwFFKMjLRkZqKlJT05CVkw++HrBXrkZPzB7dEhYFUbiw5gd8//1RBEvJRVLejPW5hui6vdGpgQPqO9ZEzNnzCBUtI5Zo0Kk+yiEZ4WHxSPK7CqeiZmhSuxJEHCjl5Jz0VKSkUN7OQJ66rwRjpVYoAj2qoEHdStJrLZQzcsCob5ZgyZKF+OqT4WhY3D32ESqh3Vsf4dtfaP9Z6FvHDPqPjBbKwapGF0z6jvb9Hh++0wXV1V1ymUbgQFDBTGwaoe+E7/D5pBGok38TJ8+dgndMKJwPX8DtKwewZskP+PKP44i9sh0br0ShSKoSamlro+4b42Hv9TcO3YpBsF8qGr/ZDlXEJxqjetM+mPTlfMyf/wlGdKmPivpiA2OvlH33Gfjyq+/xfo+aCD/xNdZei0d2+h0cWylVaq5uwvffLsKGXafg43wOV4KKe7xaOnSEo0Eignyu49zJQFTq0gT1rC1QnIWroue0uZj/3Xx889W7aG4uEhkrtYKO/4It0R3RoY6WnMLYw3EgqFB5CUHwuHoYN6LKoXL9FmjTpgqMcpOQGXAbR4OM4diqDVo1rY/atbvgvUn1cOX0TcSKewPa0Ldshg72Pvhj4174pjfB4NbFYSBjpUHyzU3YfzsZ2QVmaDriHXSw9EBEOJDhfR6HMjtg9IBmUr5uhPYd26N+HRVc3AOLBz8Z2qFZHX34uu/DxstA+4Z1UaUMjXhnZV0snDYtxBcfTsO0adPwyQFdvD1/Etpa0rBfFXIz72Dj3OJt02Z/j+Xnw6T0TAS77sevs4rTf9l8GoHJxZ91acsifDlD3n/NFaTlPOpecg5iAs/iz9nyvt+vwMHbcfI2pgk4EFQobUMtpAZfw8pJ7+Cdd8bhlwt5qNGyDyyinZFYpQ4GjZ+G96dOFdMpTJ39LppeO4FL0cU3enX1K6JJ57bIdjqNtCZdUe/ebYBU+DhtwrzJ9JnS47sNuBIkriqMvTLlrLTguuBTTBpN+XAiTtVbgg/bGMDrwhGYvTkdM9T5+sNJGNLMBkUubggWg58MYN+0JSrEBCHGqAqqVa2M8sWzJkmCsWPOhOJ8PfZdTN/mJaczVhqYoulbUzFhzFvo16MLunTpglHvforJQ5vDQlsL2jpV0f+bhZgyoHhbl/Yt0cjGEtYNu2LkjJl4u3dxevN6djArZ4omw6dgwtiR9z6ri6M19HWKwwWdphOxemxD8VoqDWBu1wJvfjYHY/vK+7ZqhBoVaY4apil4HsFnUDbmEcxDSlQwfNwCxYhKQ6sacKhXFybpPgjJNoGdTTVYGKlLwUR4nw6EYbtWqGEsXQxURchNCoSrexRMGrRFI2sDaZ8CpMeGws/LFzH35hGsjmaOtWFjTtvLBp5HUBMkw++CqxTc5Yg+qhUadEO7auUQ7XMeseYd0UxMpEZykRwRgdgELVR2rAkLugecl4gADx/E69vBsY4tzA3pHMhGuMtl3In9Zx5BgxqtxDxqZQHPI1hMs+cRZM9LyfMIciD4DMrKhNLs6XEgyMoaDgSLcSCobDyhNGOMMcYYUxwOBBljjDHGFIoDQcYYY4wxheJAkDHGGGNMoTgQZIwxxhhTKA4EGWOMMcYUigNBxhhjjDGF4kCQMcYYY0yhOBBkjDHGGFMoDgQZY4wxxhSKl5h7BrzEnHLxEnOsrOEl5op5eXlh5MiRmD9/vpzClOTLL7/EmTNnUL16dTlFOTgQfAZKDwQLCwuho0OL8SsPB4JlD10C6aGtrcwbJBwIFouKisIPP/yA3NxcOUVZ7t69i6SkJLHWrpmZmZyqHAYGBuL7t7S0lFOUgwPBZ9CrVy80a9YMNjY2coqyFBQUQFdXV36nLLdu3YKhoSH+/PNPOUXzxcTEoFWrVvj888/lFGUpKioSz0oNBKlSs3nzZr7DoXAHDx6Eh4eHaBWtW7eunMqUgAPBZ7Blyxb4+/uLVgSloULz8uXLKFeuHNq0aSOnKgcFC/R39+vXT07RfBkZGfjtt98U2xISEhIiWkMcHBxgZWUlpyqHvr4+Jk2aBGtrazmFKREHgsrFgSB7KnRbmJrPzc3NMXPmTDmVMc119uxZODk5Yfjw4WjUqJGcypiycCCoXDxqmDHGGGNMoTgQZIwxxhhTKA4EGWOMMcYUigNBxhhjjDGF4kCQMcYYY0yhOBBkjDHGGFMoDgQZY4wxxhSKA0HGGGOMMYXiQJAxxhhjTKE4EGSMMcYYUygOBBljjDHGFIoDQcYYY0yBCgoKkJKSgvj4eKSlpSErKwtJSUnifUZGBoqKiuQ9WVnGgSBjjDGmQBTwbd++HXPnzsXmzZtx5swZLFmyBF999ZV4TYEhK/s4EGRPhGqJbm5u4hEdHY2IiAi4urrCy8tL1CQZ0yS5ubkICQkReTggIEDkaW9vb/E+MjJStJQwVtaZmJggJycHO3bswOnTp+Hi4oLdu3fj0KFD0NbWhoGBgbwnK8u0VBL5NWOPdOvWLUybNk3cLqBapI6ODipWrAgHBwf8+OOPqFOnjrwnY6VfYmIi1q9fj02bNiE9PV20fJiamsLCwgIzZszAm2++CSMjI3lvxsqumzdvYs6cOTh79qx4TwHge++9h2+++Qb29vYijZVt3CLInkiDBg1QoUIF0QIYFxcnWlCoRaVKlSqoUaOGvBdjmsHMzAz169cX/aNCQ0NFng4MDBSFIOVnDgKZUlBlvnfv3uKcIFWrVkXfvn3FM1MGDgTZE9HT08OsWbPErQSipaWFatWqYezYsdDV1RVpjGkKyrNNmjRBv379RPBHypcvL95TpYcxpTA2NkaXLl3QsmVLcS5QUNiiRQtxzWfKwIEge2KdO3fG8OHDxWtDQ0O88cYbaNasmXjPmKaxtrYWhZ769lfjxo3RtWtXcXuYMSWhyk+PHj3EOdCrVy/Y2trKW5gScB9B9lTo1nDPnj1FLXLPnj2iVYUxTXX37l0sWLBAjJycOXMmPvnkE5ibm8tbGdMchYWFootDdna2eE8DomJiYu6bAoaK+8zMTNHP+0F37twR3SOoZbBkIEjdf2jQCN0FUqOWQ9qH+ooT6kpB+zHNxIEgeyp0saGpBfLy8rB48eJ7FwLGNAUVjKmpqUhISBCjg0+cOCFGTI4cORKDBw/mQJCVKlRE08wMFORREBcVFSWCPcq/NHhP/UzKlSt375pMwZq+vv59ARyhbhGU/iA6L+hn0XElj6GAkq77JdF+lK4OH2g7vSfUfahSpUqisYAGFKqDRHqmfof0/ODvxF4vDgSZQKMmqZaork0+CmUXakWh/aiz/aOoLwYPu+Aw9qyosEpOThZ5lUb70jMVQFQxodYPdf6lbTSg6WET4lIhRPmSujcQmhqJAsPKlSuLbeoC7WFq1ap1r+8UFWh2dnbiNbWY0PFU+FlaWooHY0+L8m94eLgYwER5m55pqi4KtCi/Ud6jvqwUzKnfUz6mZwrgqBKjvuZSGnVzKBl00Wvan0bIPyk63+j8Khkq0Gsaea8OEGk7nUfq1/R30DNNTZOfny/KF3qmQJbOFQoMa9euDSsrK9jY2IgBWurzir16HAiWYT4+PuJEpdG9VGOkGiWdvIROTKpZqgs9OgkpeHvSk5EKWLrwPApdAOhnqi8UVEBSbVD9+fSaLlI0Eple08WtevXqYhtj/v7+IrCjSgflX8qvsbGxomWECjLKq9T6oS4U6UGFmzp/UWFD7x/W8qAuDOlYor4EUjrl2cdVhqj1pWThR4UkoZZFCj4pjQo7elDepsoQjcak/ohU8FGhV/KWGlM2qoD4+fnB19cXnp6e4ppM+ZbyDl0z6Zmuk5Tf6T0Feep8TvlXfQ7Qc2lB137K/1S20DMFgHTeqp/VDwp06XyjfwMavU/BIPVRbNiwoXitPj/Zy8eBoIajyW+Dg4NF6wcFfhTshYWFiQKJCh0K1qilgi4UVFukCwqhCwpdZNQFJz1T4UgF6ougrhWqC026OFCNUf2eXtNFgC4U9Jq204WBTn66CNDvXLduXVFo1qxZk1tYyij63tUFoYeHh2j9oLxMlQPKr/S9U+sB5Vd6ry70SraGUB6nwIq2qfOvuqB8WCD4PKjQUrcyUsFGwR+hfE35ndLoWV0RogKP8jgFjBTYUl6nyhgFhfQ30sh7GnDFI5WVg67Ply5dEvP3UZ6gPE7XOcoLVGGgigNdp9UtdxQAvqjrcmmgbhmk4I/OFfX5QUEw/dtQ5Y/OG/r3aNu2LTp06CD+XdjLw4GgBqETh2Z+p9U9qOCkE4YuFhTwUVBHARTVHumkoQsHXUyoIKRCk95TAaq+bUAFp7oQfRWoxYQKR3UhSq8pWKSLAr2m7dTqQ68puKUCk26RUGBLFwj6fenvozmvaGqDpk2bit+faRa68FNrH+VjmqScOqdTPyK66NOk5NSCRu+p8KNWPfqOKaCj75/yr7riogkof5fM4xQY0jP9G9C5SxUfCgTo34PyOHXSp0erVq1EoMjKDvrur1+/jr1794qKAF3HHB0dxYh1unbTtZqCPrpWv+jKiyagMIQCQqpoURBIgSHdCaABLLTyD10fhg0bJq79fN1/8TgQLMWoaZ1me6fAz9nZWQRFjRo1Eq0H1EqmbjWhApMKSHUrCRWYmnoxoUCRCkt1ywoVpPTvQLfkKDAMCgoSI5ep9ZMChzZt2qBdu3ai5shKJ/r+aPm2Y8eO4caNGyKPUj6mwpBafakgpIs75V+qqKgrK2UZ5W3K4+rbZ1TJo1uD9KD8TecBTc9EE/vSvxPTTFTBvX37NlatWiW+U5quiG59UisgVXboWv2qKuOaRF0OqPsB078hlYUULE+ePFmcE/zv9uJwIFgKubu7iwsH1SDpthFN0dK8eXMR/FHQp27Zo1Y+pZwMdOuNLqoUGNIFQh1c0O0VWh+WbikMGDBALI3EfQ1LBwp2rly5gtWrV4tgh6Yd6tixo6jdUx5W52O+oBe3iKjzNbWMU4vh+fPncfXqVdFCOmnSJNFSqIQguayg/H/8+HHs27cP77zzjqi0qvv5KbHV71nRuUHnBVWWLl++LNZBHjNmjJjzk8+HF4MDwVKEajw///yzCHqmTJkiJnCmW70U8Ckp6HtS6uCQHtSv7OjRo9i6dasYzfzpp5+K28fs9aCBHYsWLRIB+gcffIDWrVuLlkDOx0+GWkSoxZBulVHht3PnTnHbePz48eL2OSvd6LujStCOHTvEOr7UfYfyPns+dK2nW8VLly4VLYPUQMIDr54fB4KlADV/f/vtt6LQ/Pzzz0WhSTVGrjU+HXXN8ciRI9iwYQP69++P999/X97KXhUKymfMmCH+/Slw4Xz8fChf0zXi999/FwUhtQ6WnPCXlT50DnzzzTfijg5VhNiLNW/ePHGtp2VPuWL0/Lhq/prRhZ1WM6BWrC1btoi+btRiwoXn06N/M7p1TsvgrV27VvQrXLFihWhdYa8G3dbcuHGj6LdJt+k5Hz8/+jekvlFffPGF+Pe9cOGCuNXOSi8KUqgfM1Xu+frzYtG/J80uQAMm6d+ZPT8OBF+zXbt2iU7ygwYN4tFQLxBNPzNw4MB7A23Yq0GBCt2ep39/9mKpR0yfOnVKjDZmpRf1XaNpj2hEOF2D6Lzgm2/PhwJAqgBRRYgq+TTimvsIvhgcCL5mNJ8UzR5PfUrYi6O+TUzTk9CgG/ZqUGs29dm5du2a6NzNhd+LQf1hqd8ltYTQTAFcaSzdqBWXpvGiAT5///031q1bJ1oIaVoUvtY/HRogSFPu0FQyf/zxB3bv3i2m3qH+8+zF4EDwNaOLBU0LQ3Oq0UWCC87nRzVH6qNDNXG6IPNi6K8OBYLUZ4cu3mvWrBGFHwWEfHvs2VDXEWr9oLxMAQWNRKVrBneQL/3oXKDBDLQ2O13bv/vuOzEbhJOTkxjwQNOi0Ehxvubfj64V1IJKFR9qUT137pzoH/vTTz+JCtD8+fNFIMjdTl4cHekfdb78mr0GdNuSbqPRPEl0sVCPrKTbxezpqFtNaB42mrOOVqqgKXdoOhmei+3VoILtxIkTon8gDXCgCXQpEKTAkAo8upWjvsXJHo4KQpqAmFr/aF7BkydPin9TmkyX+grSvyEtxUVTkbDSib4/Gu1dr149Mdq7S5cuYvoYmhaIZjegFnP6fqkRQL3KEt3BoOCGvl8lBTl0XaDR8XTtprliaaUhmnCepk86ePCgmCaMAmoadENTUFG+V5eX1OJKE86z58Ojhl+zxYsXiwEONNHonj17xMlAqwrQ4BGq+dODl1d7NCo0qWZNLYB0kaUaJN1qp6lj6MJLgQgVmjQrPXv5KOibMGEC5s6dK74Davk4cOCAWCVAvVwgTYROeZpaDulZaQXfg+gSTC191PJHQQEFBxQk0NKRdEuMJpCnPsQ0/yK1ClJryejRo7kfZilG1yOaCoxGztO1vST6rmmgAzUCUKBPFSa63U/fJz1o3kh6T40BtNwcPSjYKQuBv3rJRfqbKZBTv6ZyT/2gfei6QJPO0wwaNOn8g30BN23aJM6P6dOnw8rKSk5lz4oDwddMHQiOGzdOnPA0mTR1hqVWLbqlSQ/K6PRMFwl6TfspdS42ulWmLizpokGd5uk1PVOtklpNunfvjlq1aongg0awciD46pQMBKklhFCwTkuoUSsI1fRpH1pNhC729Ex5moJCau2ifj+U9uCFvyyh1h8q/CjwozxLFRkK+OhBhaO6IKQZBOjfsGTAx4GgZnhcIPgg+t5pxSSqxFLFia5bFPhRIEjnBF3v6TUFglRWUBo9q9cjpnTqKqB+/zoqVXSOU4BLeZv6QNKzemUQaumkc56eKV39oDTKy3QcBXu0UhQ9U2WR/ubH4UDwxeJA8DV7MBBUowKBgkLqO0gZnk52da2QCkt1QEgFKNUg6eJQ1iYsVV9A6EJJhSb9m1ChSWlUk6SLCd1ypNsvNF/Xg+sPcyD46tF382AgWJK6BZcKPboFRIN56Dukgo5WGqFzgb5Dek2VH2oZoTxPwaG6ECz5HZdWVMBRIUj5lAI7+nehoI8qLbSN/mbaRnmcCkIqxCkfUwWGCkQ6px+GA0HN8DSB4MNQizBd8+guh/oWMj3oGk/nRslnqjRRw4D6vRqVD1RmlAwM6TWdP/8VaJVEFW/KpyVR2ED5mq7BahQAUr6mLjr0TJV29TMFhZROdwMo39KDAj7K58/Sh5sDwReLA8HX7FGBYEl0ElKBSbVGCm7ogkAnNNUC6cSnB72mE4IKSmpNoDQKEumz1QVpaUSteuqaIxWU9LdSoEAXGboAlVw9hF7T30mz9FO/Pyo0a9So8ciO8xwIvnr/FQg+DOUBup1PBR+1HEZGRorgiPoS0nerHomsfqa8rW4poQflbzWqJJUs/NT7PC/6HalQU18u6e+kPEvUffoo/9Iz5Vvaj/IrbaNn9YPysbo1lG71UiFIzxTwPgkOBDXD8waCD0N5ivIXXf/pmc4XyoNUQaa8qX6vzqN0vtDjwRZCddnxpCjfPhgm0HvK2/Qg9HPoPKPzjwJSyuPqsogqeZTP6bx8UTgQfLE4EHzNniQQfBC1JNCFhlrK6JkKKSqY1LU29cmp/mrVz1SAqlckoIsBtUKoA0Q6eekkflGtLXRBot+JCj5Ct24p4CN0YaFaLv1e6otUyYuV+uJFvwv9flTg0YVEXXuk3/VJcCD46j1LIPgwlG+o4zjlcQqwqJCjfE+fT8+E8o/6UVLJ9w9ue1Yl8yd52Hv1g1BwSsEdnWP0THmXzi9qEXmewTIcCGqGlxEIPi0KEEsGhoRe0/lD59OTonxGZVTJPE+vKV9TsPc6cCD4YnEg+Jo9SyD4KOoaIRWeVJDSMwVfdOLTRYG+6pJN/LSPek4r2kav1UHk81K3UqovHhS8UYBHKI3e0zO1WtJrKjjpokKv1be6n/ffgwPBV+9FBYKPQxUJyuf0ULfCqdF7CpTU+Vi9z/Oiwkbdb5HyLeVPdUsk5Wt1/lUHgC8LB4KaoTQEgmUZB4IvFgeCr9mLDAT/CxWgdFtBjQoUugVLKCikQvPBviDPSt25WR38UcueuiClAJECQHWQ+LJwIPjqvYpAUMk4ENQMHAi+XBwIvlgcCL5mrzIQVBoOBF89DgRfLg4ENQMHgi8XB4IvFq8swhhjjDGmUBwIMsYYY4wpFAeCjDHGWKmjQnbqbfwxsrHo3iIevUdjzn4/ebtaMA5/Ow39pizDlaBkOc0dv/fphpbq4+RHu+79sNKdtqch8NLfmNzvPcw/HCCOKJaCG+tmY2Tnf44ZvuQCYtOLZ38gRYUX8XWLtui97KacUizB5zQWTyg+5o2pP+GoF/U/T8aVvz/GsE7/fF7jz/ciPj2v+CBWKnAgyBgrdYoKg7BicHUxX6R4tOyJd9d7yFvVwnDi5+l4Y8Q8HLgVK6fdwvKBXdFIfZz8qOPQCAuv0fZMhN9aiwlt+2HqljviiGKpcN36FUa0+ueYN77Zi4D4koOnLuOrmjXgOP+S/L5YSvA1LB1XfEyr4R9j800qjKUCdf0sDGnxz+dVn7wGfjHFU98w9t9UUBXmIz/bHpNXHcbhw7uxYnoLRP79ET5aeVUKsYol3TiDm1kJSLroC8+QWCknE0eMW7sZ+w5Lx81qCr+mn0vHH8auTavxtiOQExsO7+vH4ZOlhfiTbggUx5ACZMRrocmIL7Bil3Ts6vdRbttxXE5IgTp0C93wCy7Xqo2iVcdxLxRMCsD18xfhavMFNko/Z363+kCUKyLp8+K00GL0PKzaTX+D9PiiNyqU5/XGSxMOBMuEeJz+6S20rWkpJvAUjyk7kJJdPDVMsTwkhGzB+DotMGC5q5wWg2ub5qC3+pgSj7cWn0ZwCu1zAz81d4DN9H3IK1BPLVOE9Ngr+K7LP/vX6ToSv12Ml7eTAOz57G20GjIfJ73un7PK6VsHVK0sHVexEoavD5NSCpB89yy+7vTP51m2HoYv9z1Y82WKoSpAXlZtzDroBje36zj++1iU2zQRIxeclnJ7sRS3S7iVHotMn1gE+YbL6Q0xcetBOLlJxy0bhIQeP0vHu+HGVSd81BLIT06A39m98LewRt7ha/ASx5Ai5KQbofU732GHk3Ts8YWo63QDV0JjpNCxWOj6xbjcuQsslx/EvVAwLQIe5w7gpNUCnJB+zvpJ/VEh4hJCpM/LTSuPDhMWYs8l+hukx9IxqG1lJB/I2JPQgo6uESra2MPevi7a938Lk0Y2QM6xnXASDXnJ8HGJhUXdN/DmGxEICriLRHHdLgdzG1tUs5eOq2wCLRMr6Xh72NnawKxcHpKlQDAstAoGj2uEiqoL8PCnY9R0Ud6iMmzspGNtK0G/VhVY6emieArqUJzYlo7+n01Hd9stOH1dJEqnTz5ycnJRYGgFW+nntHtzEHp17QhrsVEPxhWkz6tGf4P0qGgMHe2XO2MEezocCJYJKuRlW2Pk4sO4JRVcMTE3sTBxNuz7LIVfYXHwVpiVCf996xHQqAVM9lyAm0itgrZjfsTRGOmYy2sw9vN5+Gmvi5j8edtnPVHDHAjf/jdc2rWB/cZTOC1/lqipFunArEo/LHeVjg2+gRVDGyBwy0n4ynskXjmN23qF0PeOhl9IFJLkdFyaj3duTMDRwHBER0XiPY/fcVFKVhXpomL1oVjpRr+/9Li6Cz8NqVt8DFMkLS09lDergAoVqsCh3UDM+HwgzE6uxQnRkJeKAM84GFbujBGDMxAb7o9oMTOSLgxNzWBRQTrOxABaBsWr6lSwsICRXgHSU8PgfdsSb07pjJrlT8DFk45R04a+oTHMLKT9zY2hW7cqrI3KScUYCcPJnZkY8uWXGNJwNY6cF4mUcVFYkI8CHRPxMxv0fgP9Bg9AdbGRPs+k+PPodzA24AKQPQctaOvaolaD5qhWPx4RsYlAkh9cE01hWqUDpk4YAK/oaMQUR4KPlpeGuAh/+Bj2xZg+HWHX0A5XPdRXbhKMLbP6oq6FPvSrv41b1WqihnH54kAw+Bh25g/HsGZN8Pakvthx+oo4AhUd0KFLa9id6YcWPSZgnWu6mDi9OMAIwLoPu6OmmfR5+i0w70w4Mv+508xKAQ4EywzpIqGjC13p5NPTq4nJe7dgsvcP+PVYobRNhdzsQNy4YoFRMwahqe0RXL5ZHNRpaesUHyMmgNaWap+64gTWlQosLVU4LpzIQ/ex0zC62z4cOFGyhZEUoaiAln8rRKGFCUxrV4VYIVWVCC/3ZFSs1QejhsYjNCgM8YnyLEVa0s+QjqN5C1Xaeui/9Fd0Kd4ioWW5ij+P5gN+2fMMMg2iVQFV7Fujfus0RMTEQ5UcjDuJOtCy6oSJowcgJjsdIZExUg56jIIcpIa6wsVoEEZ2boNGHRvjvLM7iu4dFI4DC95BcysjGNUajgu6prA2NxOBoCr4JPaqBmNg3XqYOnscth05hUI6zqwamvQYgq4+I9Gi3VAsPhWJfLGBhGHXvGFoTJ9n1Byf7/VCIneNYs9FylvSfxZm5rCuVAEJPh5IMFLBwsYKeg5N0OP6KZxzDkPCY6aDzU1NRJi3C/TbNIa5RUXUQAG0j57ENfU1GjUx5n/H4Z+ch7z8axh58XN8vzcUablF8Du0C4VDeqJqoVTJb9wCnTavwPa7dJwWrFuMwNJzSTjyQXUcGdMbE385jlBxctXBhOXnEJwqfV6eK77vaYfyZWtZfI3HgWCZ1Rl9xughICxMunAUIjPgAi6VH4ahLZuiQ7+OOOd0DXnqBr5HKAq7hDNF7dHa3hHTvpiE3QeOIJviSiEXsUH78EG76qju2BEfrroAI4fqMJFqekUJfvBIM0b5Ku0wftwQ3I2Lxt2YhOICt+M8bG23BW82rIn+S24iPj5D7nuSgwiv7ZjahvpTNcXgaX/g+r1mRMaov1QhyhuYwc7aEokB3ojOToReRRPkVLRFc48ruHnVF+GZ6sLs3/KzUuB35TxUzetAV8rHptraMD18EOdi1CeCHYbM3Qa3uCxkZTljWuRKLN99G9HpefA9chC5nRvDJD4eKQ6t8MbmpVgXVHwyVKjTGV8fSsCFn3vD98shGPf1Lvjm02fa463v98FDfJ4bFr/ZAJbFc6oz9kyKCqIQ5BOCUN86sK4QCKeTl3Dsxx8wrW8j6bo5GItcDmH3NW8kphUv5/kvqkzE3j2J1fMOYeuH7aRj2uKdb37D/qg78PBJeEhFqgXemt4aSVkJKMw5hsXfesL3l+7ScXXQvNNnOKjywGmnUKkCn4+8nEzkFJig8bBvsPi3QaiQcRG3vIrX42alGweCZVY2stLLoVG96tLFIx2eR48it7EtcuISkatdDlaHduJYxL2o7iFy4X/mDFKqm6MoNhqhVR0wcNtiLPNWtwqWQ5XaI7DaPRaxsX7Y93lLxK3/Bft8cxHjdQuR2Uko0MlHrIElGl0/ifM3ghGXU3yZ6ShdTO5GumH0zXfQtvnHOCZGpBnCruEYrL9Nn+eLE+s+QXtLsTtjKMqPR6jfbXjfaYBqFe/C5coVHF+2Dovf74v27d/D8hsncOiWN6ISMh/eKqjKR3rcCfy98AYuLRouHTMAU75bhTNpPrjpEY1/nwkN0PvtZsjTyUB++mksX+aP8LUT0KFDe3Tt+R0umfrh2OlA5EsFYHZaAlJzjVC76xTMWzIedXUuwuV28Yo9jD0fFQoLpOAtLAhBQUFwOXcWB6VKfEGntqid7Idb+dUwaP1FBMfSdVN6XPwVVaL84Z2QhryHnAiqrEzEuHgi+f3N8FIf43kcMztYwcfDBwmiTiSdKwlRuBtCP/M6TlwOg4OdNQrOHsHeDgvgqj7urj9O/9gHvmec4Bd5B+e3/4w1p+iY2/ANTUL58vawtqS1iPORJn1eWHDx3xAUm4aCf5rhWSnAgWAZlRG1C3uOtUHTOlooSD6C338PRtj2mRgx4j18vmA7biIIV2/exSO7amRdx9btgQjf9wumTxglHbcUXnYh2Hvwzr3RY/8wh13tFnBsZ4rkhFu4ctEVl7fsxF9fvycd9w0ORjrj2E1vxKZkIzcpFJGpBVCpqmH8Lk8seGMPdh78Z9k7xtSKCtNw19sd7u7uuHz2HPafuoSiN7qiXmYwvFON0HbJYdwODEQgPc4uQ+OcaPhEJiD7YQVgQT7inS4gZMzfuKE+xuU4vh1QS3q+jRhxIuQhJSYEPrfpZ57D8evRqFXFCqqrp3Gqxac44ulTfJy/Dy7/PgIhx0/BJ0EKSg8swIq9dMw1uPtHQ9ewDmpUpvWG85AcFQRvj+K/wT04DtmipZCxJ0HdffRRzjgKmz4aIV1LR2DasjMwGPwblk5uh7zEJFS0s0BbR3sUr3otadQR75hkIzUhV6qkyGkmtmhiRwGZVL3PlyrnaYno37cN7q3HYV0dLWvaoU5GEhIydWFSWRveh37DJ+PoZ34Ip4Y/YkYPW4SEBeLN0T1hLx8GAyNUbNkFw3LDEWtYA9WkYPH213TMBKzwrozWg0ajTVXp86powXPXL/hobPHfMGLpWSRnPtjNiL1OHAiWGVmI9nPHjctOcHJywrr/rUPUkDfRs5o2Eo7vg8fQJThLIxfpceUoFo9uirCrNxH+iPMx/fpFXKsxFIuPXsRN9XHb3kfsvgO4I+46FCEvKw4+N+jnncWZazcRl2mGGjmx8MqthF5L9uGq+riDC1ArXioQY1IQc2MZlqw9g/MXnXDJaT/uZLZE1wZVpc8rRE5mDLyvF//+TlKtNSg+i34QUyItA1Sqo4tzv8zEzJkz8c3fx1DQZyn+mN4R2lk5qFDVEl2a1YKJvDvqtsKbdkbQy8xDrrp2Y14DHWoXNysXFakQmZaJ4UPb497CbJZV0dCxIVojA8lZujCzNkbC7cNY9hX9zB/hXGM6xvaoj7T0JAwZ1hE19OWOTTo6MG7TF+8ZJiFeqwqqN2qJpJV0zFxs8jRA4yGT0NFO+jwbY8S67MWSOcV/w8y15xGd+ohbdoz9ixYMzBrjg23ydZQeRzfdG0Rn024cPpo+C73q3TsLJI54d/1CjO9Uoh9e+zm48WU78dLA3AYDP9+HOT1LLstWGW3GTMMHs4fAwcQcrccvxLZz//zMHTO7wMpEF60/OYM1o2vJx5ByqFRrAGZt/xrdKpnDoecHWC0fc3zFl+jnSMGnBdpPWYpdF/75PLeFQ1HJhPtIlCa81vBr9mLWGk7BzU1LsfaoKyLUc110+QQ7PuoK43I6uPHnUJyo/Te+7a0uAtMR6nwe506ko8XHo9GEfmzUDay5Fge7+u3Qu0FFBByej/3Z3TGmTztUNVXP+eSGPwfvQs2VC9ClnBd2zpuDvSHFW0xqtsSwCTPRWesiTtyOhn37MehaW11PDcT+OftROHgU+rZMwc73fsTB5AwUammh2fur8UO/SkiPvYUdP3yLg6HyITZNMWD0FEzrXE1OeHq81vCrx2sNv1y81rBm4LWGXy5ea/jF4kDwNXsxgSB7GA4EXz0OBF8uDgQ1AweCLxcHgi8W3xpmjDHGGFMoDgQZY4wxxhSKA0HGGGOMMYXiQJAxxhhjTKE4EGSMMcYYUygOBBljjDHGFIoDQcYYY4wxheJAkDHGGGNMoTgQZIwxxhhTKA4EGWOMMcYUigNBxhhjjDGF4kCQMcYYY0yhOBBkjL1QWlpa8ivGlMnQ0BA1a9aEt7c3VCqVnMpehKKiIvj6+qJGjRowMjKSU9nz4EDwNaNCkzI2e/HoAkwPbW3O5q8K/VtbWFggMTFRTmEvCuXlnJwc6OnpQUdHR05lpZG5uTn69u2LW7du4ezZs8jKyuLr/HMqLCxEZmYmdu/eLc6Frl27wtjYWN7KngeXkK9ZtWrVEB8fLy4U7MWhC0V6erq4cFhbW8up7GWjlpBBgwbhyJEjSE5O5sLvBSkoKMDdu3cRGRmJevXqwczMTN7CSqvatWtj5syZ2LNnDxYtWiSCwqSkJOTl5YnrE/tv6spPQkICnJ2dMX/+fPE8efJk2Nvby3ux56Uj/cPOl1+z16BKlSo4f/68aBm0tLQUTd18a+35UKEZHh6Oy5cviwvJkCFDoKurK29lLxO1VFHgHRwcjDNnzqBChQqiBUtfX59bZp8BBQ1UUXR3d8fmzZvRunVrdO/eXQTcrHSj/E7nQps2bcT1aNOmTfD09ER+fr6oINF1iq5PdG3ic+Mf1PJHlXi6qxAaGoqrV69iw4YNopzs3LkzJk2ahKpVq8p7sxdBS8qIXDV5zegi8csvv4gaDmV0GxsbESBy8PJ0cnNzRYtJSEgILl26JC6uM2bMELcq2auVkZGBw4cP4+jRo2jYsKEIYCh/V6xYESYmJlzwPQYVhCkpKSIAVBeEMTExGDp0KLp16wYDAwN5T6ZJqDWQghk6J6iVi86HWrVqib5udF5QK6+pqaloDFDSd0x3w+hBwR/lewoAAwMDxSMiIkI0kAwcOBAdOnQQ1w724nEgWErQiUA1/osXL8LR0RFNmjQRt40rV64sAply5crJe7KS6N+NLrBRUVHi1pmbmxtiY2PRr18/DB48mIPp14guLdHR0eI28c2bN0U+rlu3rsjXdHGnflTUYkiFn5L7vNG/ExV+dCud8jLdBqMA0MfHR7QadenSBT179kSlSpXkI5imo8oqtfJ6eHjgzp07KF++POzs7ERLF50bFBTSM7X80jY6V6gM0OTBEVQ5pMp6amqqeE3Xbgr8KM9T/qdrODWK0D5Nmza996CGEfZycSBYylAhcPr0afGgQpIuDFZWVuKiQAUBPaj2SBcHJaI+f9RSEhcXJ57pQYEfXUDodou65kjBBSs9KMhxdXXFlStXRC2fCjR1nqb8THmdXlONn/I2bSuLwSEVcurbXlQYpqWlibxMDzr3KT/T7eD69euLANDBwYE7xCsABYZ029jPz09cy+iaRucDnQv0/ZcMCqm1kK5vFBjSNnpP6epKL51DlPYquhhR+EABHV2XCd32ptfZ2dnimVo+Kb+r8z2l07WA8j1tp/PA1tZWBMHU95XuHtBr9mpxIFhKUVDj4uIiao0BAQHihKKTn2qKdKJT6woVnvSeClKqMdKjrLSA0YWDaotUe6Qao7rwpIsIpdGDLib099MFpG3btuKZlX70vYWFhYlbP1TwUWBI+ZbyNxV2VIhRHqdCjvI5FYLUx5C+a9pO6aW5ZUR9m0v9TIUf5VcK8ij4o/eUTue0usCkgI8GF1AASAUh3wFgNEWKuqIbFBQk8hBVGKjPLZ0H9EznivpZXXGi13S+qNH58iS3VKn1mfxXGUK/B+VtQuEDVVzoek3oMyhfU0CofqY8TunUX5LOZ7ojQMEfBbp0a5y9fhwIagDqM0RBEHXAp8KTao90MtLJTictFRp0MaAHBYV0kaCgkGqJ9KCAkfallsXShAIAyn50saOLBv1NVEBSoEAPuojQgy40dCGhZwoG6OJBtxipbw39bTy4RrNRIUJ94ChvU16gvE63RilvUJ6m/E3fMb2mwo7yPL2mwJEKOaLO7+q8QPmEtj0sb1D/RNqX9nkQVT4oWHsUqoioWz+osqZu1aPfldLpeDpfKb/SM+Vf9Xv6O+ncpPOwevXqIsClvsBcGLKnQddICg4p71ErMuU/qiyrgzE6h9R5ktA5Q+fLf/Hy8hJ5lSolj9tfnacJnUt07tF1mFAQSmUQnZuUvykApfxO5xsrvTgQ1FB0MaDCkwpN6luhvrVEJylRF4APPhMqWOnkVNcg6T2dzHQSPwztR7eo1R386WdQGl0M6Gc/irpgpEKQUCBHv6f6fcmsp36tfqYCky4o9KDCkmqS9EwXmIcV7qzsocKM8gvlMSrkKK9Tvi8ZrD0qLzwuj/xX/vmvS+LDtpdMU7fYq58pIKVCkfo68awA7FWj84UqMP+FRubSeTZmzJjHBm7UkqeugLGygQPBMoaCQWqKp5OfCk0Kxqi2SEEYBY6EvnJ1MEboPQV1j5vzTR1gEqqNUgsj1QIfdxuBAkcKGNUFHz2X3J9uEVAaXVgo8KMWGnqUbOlh7GEor1KgSHmcqFvq1HmYWpcpWHzY5Y32oX3VhSMNyqDR5i1bthStzI+7jUZ5Xn1bmvI37Ut5lvIx5VmqUDGmiZYtWybuzEyfPv2x5wArezgQVCAKCik4VBea9J4KVXp+GNqPWmbomR47d+4Uhd6wYcNEEPcoVGDSBUXd8ki3G6ggVb9nrDQ4ePCgGG0+ceJEUTlhTIk4EFQuDgTZU6GWwx9++EG0fNCs+Yxpuv3794tAkFYr4ECQKRUHgsrFs7oyxhhjjCkUB4KMMcYYYwrFgSBjjDHGmEJxIMgYY4wxplAcCDLGGGOMKRQHgowxxhhjCsWBIGOMMcaYQnEgyBhjjDGmUBwIMsYYY4wpFAeCjDHGGGMKxYEgY4wxpkAFBQVIT08Xa83T8nK5ubn33ufn58t7sbKOA0HGGGNMgWJjY8Va26tXr8a1a9fg7OyMDRs2YPPmzbh79y5UKpW8JyvLOBBkjDHGFIhaAc+cOYPPP/8cBw8exNGjR/HVV19h27ZtolVQS0tL3pOVZTrzJfJrxh7Jz88Px44dg7u7Oy5evIi4uDhxCyEkJASWlpYoX768vCdjpR8VcpcvX4aTk5NoCfH390dmZqZ4psKvQoUK0NHRkfdmrGwyMTFBXl6eOAfoek7oWj59+nT06NEDBgYGIo2VbVoqbvtlT4AKzEGDBiE1NVVOAXR1ddGxY0esW7cONWrUkFMZK/2io6OxaNEi/P777ygqKpJTgYoVK2LhwoV45513YGhoKKcyVnYFBgbiu+++E62AdC506tQJv/76K1q1aiXvwco6vjXMnkj79u3Ru3dv+V0xc3NzDB48mINApnGsrKzQp08f1KxZU04p1rlzZ7Rr146DQKYY9vb26NmzJ2xsbEQL4cCBA1GvXj15K1MCDgTZE6HWv08//RTGxsbiPd02q1+/Pt58803xnjFNQvm3cePGGDBgALS1iy+DFBz26tXrX8EhY2WZnp4eOnToIFoCW7ZsKZ5NTU3lrUwJ+NYwe2KFhYV49913sXXrVpiZmeGHH37AjBkz5K2MaRbKz8ePHxcd5X19fTF06FCRpxs0aCDvwZQmMjJSjKBNSEiQU5SBpopxcXERg0datGih2ECwSpUq+OyzzxR3R4ADQfZU3NzcRCdiunVw4MABceIwpqmor+Avv/yCPXv2YO7cuZg4cSLKlSsnb2VKQ9OnfPLJJ5g2bZqcwpTk+++/x/Xr18UASCXhQJA9FRphRjUmR0dHvP/++3IqY5qJWgVpygy6+I8dOxYODg7yFqZEV69eFcHAiRMn5BSmJNQthCoDNGhMSTgQfEp//vmnuEhkZ2fLKcpC2SUiIgJGRkaKqzXR30wjpydNmiSnlB00sewXX3whvlulSUlJQVZWlrj46+vry6nKYmtrK1pGK1euLKcoEweCysaBIHsiI0aMEB3KmzZtKqcwpaBWI1dXVzHzflkTEBCAkSNHYuXKlXIKU5KpU6di586dqFOnjpyiTBwIKhsHguyJUIsQjZ7t2rWrnMKUgm4h0kAZmm+rrKEJw8eMGYObN2/KKUxJaM64LVu2KH7aEA4ElU2pgSBPH8MYY4wxplAcCDLGGGOMKRQHgowxxhhjCsWBIGOMMcYeTpWP7NwCqFRFyM/KQYGc/PQKkZeVi4IiHpZQ2nAgyBhjjL0UKhTkZiI5NhrxyRnIK5KThSLkpCUgNjoRGXlSoCWnli6FyPbejCk/n0ZinAuWDZ+Hy1IomB4fKVZhEY/oWCRk5Mn7P44rfu36LfYHxCFXTvk3FQrzs5CenISsfDmJvXQcCDLG2MMUpCMmIR35BblIjYxDxotqychPRXh4MvK4YUQBchB2Yys+69EKb336Fy7HFsrpktxQ7P1lPHo2mIj1buHIlJNLlYIQbPnhPNr0dUDI5rk4PWAyOhcGYcWgemjVpSd69uyBroNGYPzSEwiPz5DCxueVi6jbe7Hss4nY6SMnsZeOA0H2YhVmISExEYlpmUiLiUNSaia4YqdEKuRlJSH0jju8AiKRdt/9pAKkRQfBy90PUanZz3Gr6WXKR/LtPViw4TLCAi9j9Zw1cMuOR6iLD+LuNWeokJ+TguhgP8Q9TSkeuQ9TJm5CSOF9zUMlUEtRLKLCQpGUIycxDWaGWnXqwrpSBjzdw++1hmW7H8VxY3vUNrNBBTkN6RFwd3MV0zi5ut5Fmkgszmd379wU6Z5+wUjMLkRmYgT8bxen+d5NQGaWVMHwvQM36T2l3QxOuHcbNiVUTqOH6214hyVJFZxsJEX4yeleCI5M+XdLXVIYolVNUdsmC6FRWujWqJpINjDpiB/P+MDHxxPXdnyFlh6L8OGPexFM6yzkpSEqxFv+XF+EJz6iDEi7K+/jAvfbEUinvzM7FdEhwYhMSEaIlycCpN8zJzcVkUFe9z4vMjmrlF4zNBcHgqVONsJdz+L8BXdE3VcIFCE7JRJe167htl8ssuTU0qUA6WHO2L//KM5dvY7TW/fhwm0/hAb6ITwh/YHbIi9aNu66XUBgsvyWvWZ5iPc/i6XjBmHq1ytwLrzEraPMEBzZOA8T+s3C5suBUgFQCuWFYP+fzqjbvCoij/yGG+36o4XeLSxsMxl7IuV9pPyeHHYB679+H3t85aQXQsrLzjuwavECnA2Vk5hGM7aphRr6+ki4cRH+FCzlJ+Oamz+aVK+GalZyGJgTA499qzHrq7mYM2cO5n6wGBvpglaYjeg7B/Htp9NF+v9W78StsBhcO7IS38z6WKStOnITkVF+OLJyCeZL7+fM+QTvfrUefom5UGVHYMtXYzBzzhf4bOZ7eLPXGMzb7orwkJvYu+IXfEb7z5yHn9efxK2kB1bMsuqBeTs/Qx9bR4xYchpfdnpwHW49VKzVAWNmjETNwIM475GMOM8L2LB0AWbR5340H//bfx2hD946zomC+84V+Jj2+XIuvv5kGbYHJyIjzhcXd+/CKRdv7Fn2P2zcexmet89izdKf8DntO+N7/O/wTYRncvPCi8SBYKkTjX0fj8SU9z/HOs8S4V5eMvyub8EX0z7Dkt/PIlxOLlUKEnH7nBuS4vNRLu0G3KTsZWFTAT6rfse+64FIeannbiT2fjYQq93lt6wUMEJVu7qobV+AW5f87wV86V7n4axrhioVa+HegmaJfjh94igOHDggPdwRJxJVKMhJgNd5SjuAkxeuITRVqmzEBMD5dHHaRfcAJKQkwPfGBRwTx0oP52Bk5BbfpIrzOCJ/pvQ4dBRnXMORnZ8lBanX5fQzuO4RgQyxdwmZaVBVboV6tnrI1rHFG41soaejJW98mFwkR4TC+9JN3LhxSny2060gqMvVnOg7uHC6+He54BN3r6WmKD0QF9W/37HTuBSYgKykCPh7eMIvJBQ3z5yHq28MstKjcOvaWfl3voaAxAxuFdEkRtXQpH01WBj6wf1OMpICjuNcRE3UqeUAGzN5n9AD+Hh1LAa9OxkffvghJrwRjJ9+vYysvCwkB3vBr9Yk/Lh6Dzb+bw56mN2Fb2wBjPvMxcrth7Bkel/Urd0ao2ZMxsezPpSOH4+eYXuw1y8HRZEHsDtyBracOYF9m7/CUKvmGDm0HiKunMThIFtMlH7Wh+82RkbMLZy9Gv4M+coY5hXroWbjfGREe+LU6cvwLWiEKfS579jg9k1nuPsl3H/bOGgXJq9Iwjja54PJeLNtEH790wUG9m3w9uwv8V6fDvh81Ub8OK4qbp24hjCd5sWfN6oSblxyxp3gJLzUdgWF4UCwVKqPQaNscH3TJblAlIqZhLvwD3BFat2uuLcsflo4bl44jM2bN0uPM/CMTkVxvSsTQRf3YvtWSt8M5ygpRstLwK2jxe/3HD4Fv9gMRPtcwQFxrPQ4dgU+0cXFYVLAJRzbJ6eLbbeRkCedxlHOcto27NmvLqxLyC+Annl1VK9XFxUqVEbj2rVRrYKhvJHE49b/27sP8CiqLQ7g//Tee+8NAqSREAi9Ix0UUFRQEN+zIVgQKcKTohQRVHrv0gOhhZpASEghpPfee6+b5M2dDCgKSEQhyZ6f337s3J3ZGWRn5swt554JRUzkZRw6dICfySAkl5W3oL4qByHnWvd36tJNJLOaveo8RAVcEPZ5CaEpRWitJC1C1IV7CPQ7isOH9yMgoxRxl84ghLswRl85jBNn7nN7Iu2BvLYJrPQNIAq/jOhyrqC+CCGRWTDTMeSCLKEmpCYdAWdO48Bx7sZ18iRO/rQF69mPtrkRZQkXsfqHLTjJlV+4dgupuQUI8zuOTVt282U3QhNQVFqA2IBrOMu2PXkA69bvRUhmOURckHVw7XfYe/IEfj2yAQumz8fmq4nISw+F94EjOMjWP3AQu49ehH9mayPcQxpueHfVOxhq2wUjPt2M97y0ICslfPZY5Ujkzrmfv1qL3VywdvLwVmz5+RhuRhWitjYbt/Zswvot+3D42EkcPnUFOQ2N3K+e+ytWJOA6f9zHuXNiD7bu8UF8Vibi7t1HTHIagnyvIDg8EmEBV7i/w684ytbdvhM/+UaigHrTdyg6lg5QqpNAdMB1XLkQgRYtDZiZ6eDh7NaFeUhuSMUdb+73w/07+2ToYZKNCmpkFaFr5Yz+zVE4xv2Wz3CBViqM4WqmC5WsQBw5dhSXQ5JQnJ2I43u3YAd3XT128gJCsqOQntuEFmUVqOYH4xR33T5xIQwN3ZxgJt2AquIMRGSE4Sr7Td1Khoy0Jqy1ZP9GV54G1NVUorFKF8Zq0igpz0B47B1cYt8bXAhTVQ1oK0s/Ggjm5yJBlIoAts7ps7iRp4PRVsr40wz+1VUoLk/ngufbuMjWDS2FtaYG1JX+8H3kuVAg2E4Z930ddvc34wp3P2T97nIzk5CWr4KRbuatK9QXICbgJs6dvwb/oCAEnTuBLZfvIbuiHsi9jXW7jsH/9h0EcZ+llTWhOuECVu88yS+HRcQgr7Ie5XnJCGfbBvnhzK/HcOlWFHcSZ+HGqRPwvuCL20Fn8NO8b7DlYhzKSyJxas8ZXGbrB9zGjeOHsaM1ivuNghE8Jk/ElIl94TXkXUwZNwhWGsJnvESc+HwZfjl9DQF3AnFx25dYdCAKlU21KIw+j/Xc97PjC49OQGF5KZJDb+Gsty9usn1eOI1dF4MQX8RqSVNw9ptV2LD/JPwC7iClpBq50eFIr2hCTkyw0N+EtAtyOrB1toOxdhpuc8FdfvI13MlSgJ6ZE0zVhXUyr2LlwSjuRukIDw8PeNjHYf16f1Q0i1CbGYkI2V4Y/+n32LD8cwzUKUZuXhEqLMfhg2UbsXTWK7C36IK+I/piyBBuWw8X2GScx6XYctTm3oBP9mSs2bcPO7fOxRAlB4wf1w3lIWex278GLmxfLlooyw2Fr3/qU0YyPqs67uZuhVGz1mDfrvV4Rb0aSZGRKMy4jYMRKhj70XfYtXcfPuuvgUbp1i2kDIbjjbfZcXvA1VobUvfOI0bRE2Pfno4JQwbgw+9W4P1+MvA7H4D0eh30ZMfsWIHz3gFIKaiiWpGORMsS7tYaaL53CDv9pWFh5Qorvd81taqoQUe3Dz5euwP7uN/svr278PO8AdCWUoSB6zSsWr8Y041ScfTIPvhmacNzyqfY8NUUmBVcxC5vP8SHXsaJIhdM//oX7P3lCww1VYE0q8Suq4W8TjNSgkIQmyEPz89nwF1HGnKaZug18B2s3Mrti+1vw+d4zdMcv390fxb1FdkID/BFVLkzbEzloKRpg6GT5mLtduF717yPQXa6vwW8jKoa9HT74bNNwjq7tmLdf72gCWlIyyhBSVlYT04Oylr2GDFlPtbvENb9bhb6WmpBRliFPD8KBNspWQMvvDamHCeORaGoLBtRwVeRpz8RHkbCCiXxOO97ExHZzTAyNoaxXj58z99BYm4lmgrjEFagAr1hH2Ljpk14zb4ZjbnRiKy1hOvrC7Dy67nob60FY3s3eHly2xobQa8qAXFRUUjJikd4ngWGvrMcP/z0GUYb9cD4CX1hmHURX+6KggHbl4kelGXu4dChe38j4KqBvNO7WL9hE374fCTSrtxCcVMjavMSkdDigL4zvsayebPRSzkNt25chV9CXevfT78MgX6BiEwuFpouamE0cAFWr/sJ052MMXDeUu7pWQ5DP16Pb5e8Akt+HdIeqBpbQEdBHel+F3DlajJE0hqwctCHvPA5SouRLSdCVX4usrOykKXSG58PNIFIShbqDkPwrn0Twq4exi97fkV4jQGcuvdEH+VsXDi+E/vOByEzJQYnT5zFpeAopGbloLg6DfnFjWhWVYd2zg1sXf0d1m86h8p+g+GoJOJuXNz+pOpRwfZVKQNLayf0s1J/hqBKA9oPzr+HZCEjow0V/salC1MjR9hZKQFKejAxluY+reWe2cqQZ+2ILibqUOICQJs+I2ElLQt2jxYlXsSqrecQnZWJnNxslNTkorSMfdfvVFeipLkGJVWlKGTHLGmFye420FKW5WsVSUehCfteXaBUU4AiJRWYdjWFqvAJz3wA5holYu26dVi9ejVWr1mLn66no7muEonXd2H1pl04d68RRjqWUGmKw40Tm7F6lw8ScjVgYqAJJXMrOKlk4NbBX7B2xXnEierRzH5keTnI0zDgrvPG0NdQQmnoKQSVasLG0g62uT5YtpLbF9vfnrO4m/bHH9/jiepTcWFL63arfuCOK0MFfacPgY2xCdwtdCFx/xj+t0r43sPXkfjH0VRWQ7HAKBKLvhXWWf8jtvuzDk/SUNNgx9mI87u24fjdWjiYq6Mu5Cj+9+A4j/ohrfhPdYfkOVAg2E5JSnM3qH6voOb4PtxMSEb07Wa4DHfAgwcl1NagXKIZInlZSDc1oUnPFW8PdoaJJnd7NR+Ez0c6QDbtApYsXoyzyVJQ6jIa8/ppI/vOIazeuAOBCXmI8L+AwzcSUcm2by5FZVUF6qSVoVYRjfNb1+KbRVsRbeOKHoZKkCkrQoauBtTYui1SUHEYiQ8HtI4ga5se6NNTD1JSEtCy7wYTViStAB3HEZjTUxEJ1/dh7bZDCEuvQ0UzFyAqykOW7VPLERP7u8HBQFm4+XWFh7M+5GTpJ9zuqRiju4MplJOOYfPVEqiau8NB72EYCO7KD30ZMwyf/RWWr1iFVatWYcWc3tCUkIaK5VB8vOQLzHKSQeStU/BNlYf9gKn4Yu6b6KOUhmu3byP6fiD8Kiww4K2vsfqr6XDTU2+tLeACTDhYQZ37/UjK2mPMV2/CWUsKcur66GruhRkLW/e1auEcjPcwe4aaEGs49MzEpYCk1sWGWpQnJiCy0p4LAFkBF2DmxSM5vYZ7m4bo1EqUceGunJYqdNLikJBTgZomIDX4GtJFrU3DTYnn4K34LlZ9+w0+e7s/9PluiLKQk1eG8oMoQVEJ6gpG6DP8LcxfJhzz3LFw0FbCU1urSTsgDU3zbug9YiAsuecDBWNnjH3nS6ycMw4uZqxzoCF6zxgCJxMNyKo7482F76CPvjSa2DWPvy63cL8T7r/mZn5ZUtUETp4j0Zf7sgdlcqaeGNbbDVbd+2LmECcYq8ugSbkHpn35NSZ0U0RyfCjQLHwfF1Rmh5/HtsBymPYcgalvDYa5/IN9NeNZMiRJSGrDc8ZbXNDZup2MmjH6T5mHmcPsoSyni25Dx2DCWDfunP7te1v47+XW+88wOGorQ0qjJ95dNgse6sI6TWzfrTtX1LGC6+A34KTThGY5PTiNGo9xI52g+/D7uP8fz3Cc5NlJtHCE9+QZjB07FvPmzcOAAQOEkn9aCn70eguy+/wwQz0C++d8jL2SZjDXm4wNG3sh5cAZXL+jjAmLTeGz8SxKzF7Bh2/3g/7v7qsPZfpj2fx3EDnuDo6/oc09xtUi9+6vWLvHG+qDPoV18SVckh6DLW9p4sKaRfApdceMaV0QcP4uqiWUoK0pCx2XMRjT0xRKMWthPzMH23w3gIsn2yAf3l8sR2q/WZg2tBabup2Ai99SjNVXhUTijxj+oRy2X3offIN3fQWS/fZjo3cYLIfMgEbseYS0eOGzT16BqSL/ZYK7WOVxElZ7PsFYBwOhZqkcB6YZI3J2Jb4bxBf843x8fHDw4EEcOnRIKOk84uPjMX36dD5Fwz+jnrvhXMHxbTdgu2QNBjfdxrb/rcThEg8s+N9cjLHLwI5pJyE9fQLG9VdA6A8b8GNyM0yUpSHNxfaSXv/BDxMtkHx5EzZezISougHN0vroO2s8dGO8cTa0CHV5lVD2GIHXx5ji9pEjiM6ohnyzJgrT9kPp3ZtYZ+ONSV9HoYtDa0Qlq6SOwTMXwqPhGvZuOohrIi1YcDdn6Dti6OjxGNNdl1/vadKvcwHbhnAYmHEPQY3cDalSGUaTXsM7E4yQdnAvdm8OgfRQc0gkRyMTrpjw/vuY7FSP69+vwK6kJmiqKcPCRgTfM9bY4jsXlmlH8cZnv0LfyBSNxVzgKJGEPvP9MFPtCg7u2oRTmZ6YNskNJrXhOHY1FpUyStBgbWyO4/Dla31gpP64E7/tevbsyffZtbOzE0rEU0BAAJYvX46LFy8KJR1fxvGpeP0nObh05wJP9pttUIf5Bx9gvou+sAZ5wNLSEnfv3oW2dptuch2e1Dcc4T15BocPH4anpyfMzYW+ev+4UgTtOgWpCe+il5YC5ERhOHqkCAMXfYQRpi3IjohHWpYsHCb0gl1tBvyvnMGh02dx6ewZnEmVQjdrE7RE7MbX323B0cuhyEjmnt7mjIVe0BrM//4gLgekoK7FCn2m9odpbTLunj6EC+ejEZWUANh04Z5S1REbGIS4tGwUF+cjOewminW94GhnDvscH3y97xxuX+T2dek6QputMchOSzjuJ6lGvO9NlJm5oJuVCHc3x8Jg5gDYKctBoiQIB85LY/Srtsg6vRILfjiKa3cy0axgjz6TB8NdvgyR/mew+8Q5+J7j9hlfD1NTUxioFeHWjlhojuf+H+iocM/cjDwU86/g290BSIoWwWqIw2+5uf4hiYmJiIyMxKRJk4SSzqO4uJjvoP7ee+8JJc9LAtKyStAyNoeZmSE0VFSgY9IVnh7ucHYwhKKUDJR1DGDmYMJddI1g62AEORkF6OjowsDAAIZWXdDDSAWNtWXcQ4k6jMxs4NRrMPr20IZEfQP3z60JExtXePXrhW4OlrBUU4Kyiho0jF0weGxfuHd3RnXAWlwsccaI3rYw0NOGQsFtHKpwx6whjjC31IEsd3xsXwam5rCxMON+V39MjfFn6hau6KLK3UzVuO24v5t9z8GYMM4JOtzvPDsyHfn5qug+vhv0tKzRb8Rw9HOyhLqiOowtDaCmqsb9XfXQY8gUDOvKHbONDhQ0TGCvwn2xhhmsHftg+FhPdDG3gaGWKlQ0jaCmogELh25wc3eAnqYa9x0arcdsbgtHM277p49geWbbt2/HxIkTxe4G+EeZmZm4efMm/1DUWahx552+nAxU2e/G2Ax2zgMwdoA12DMQedSPP/6I2bNnQ1HxkZqHTo9qBNvo368RrEbSjWBI9hwAS0URagqTEB5RDbM+rjBSqEdJRg4KS6Rh6GQClaoc3I+MQVIOG47J0e+KgU5WkC8Ox4372ahlI31hAa+JTpCJv4Hr0WworhzUtG3h2t8K0gWpiLl3H1lV3A1UQxLqZiaQiDqMXTfKYWbnCgsd7sYYdxyrG2fh0hf9oVkZhRO3kvldQVoeara9MMThrwLBOuRGxqFa2xwmek1I9s2Gen8HGMjLAFVJuBUuCedeRqiOu4Vb8ax/igK0jOy5Mkuo1RQiPiYKUeklrV+lYwvP7rYwVK9B/PVsKLlZw0BF/mHzmCgnFGfuZEFBxQYew7rgr46srahGsGMpvDoPU7+KhYYpd8tr5gLTBnP0XvMlPnb4N4KdAtw9eAbXbithwi+vo6PVq1GNYKvOWCNInp241ghSINhG/34g+HJVxR7E//53GCGZtZBS4EKsMiN4rFmIr7ysoCgl3v3xKBDsYGqzEXonDiX8DB6SkJU3RY++NngwWPmf1YDyvEKUlkpBx0G/w9W2UCDYigJB8SaugSD1tCePULYejY+WrMJ3a1bwF8TlG7/Cx70soCDmQSDpgBSM4DpoMIYOHcq9BqP/vxYEMrJQ0zeCeQcMAgkh4o3u7uRRMmowtu8Gt1690It/2UJHTppPdUEIIYSQzoUCQUIIIYQQMUWBICGEEEKImKJAkBBCCCF/LeUXeEnLQEVzFPakC2V/ko4LKzdi05rLyEAMdr+9Aru976NY+PSPGqrvY/0oM3x+LB675rlg7ik2ryp5kSgQJISQZ9EiQl1NDWpq6iF6Yq6FFjQ1iiBqbOLeNUPU0AhRUzM/i8jjcevU16KhqYVbt47/k4ip5kZc+sIS2hpKUFJSwoif4sESgLUfLbi47jN0O9eIypLzmGEmFD8Gm/WkhZ+mhM2K8vSZQET1yciIexND+jRCVl4ZViaGwifkRaFAkPyzWhpRW1mKwrxClFXVPeWGWY+KvAo0cO+am+pQWVSFxtYPHqOZe2osR2V1LWqrylDO/Sl6lrmQSIfSUFWI/Pw85OXloYTNxdbONET/gJGm1nBwfBNHs4TCP8nElR9+wU+rLyId8Tj0nzXYc/IeioRP/0jUEIUfRthjiU8KDn7hivln8oRPiNi5vQKzI/+Ly5klqK6uxhe5+3CHPU6w62Nxdev1saUJ9bU1qGIz7XCLzY21KC8p4M+ZvLwSVNWL+PKm2nIUFuQL5eXc1ZZtyz2k1JYJZQUoLq0RrrktaKyrRGmhcO5VcOVcIFdfWYJC4Xwsq21AdWkowu83o7Y0D/ls299ft7njaqir4a7Rrcf1OI3VJSirruOniGOaakqQV16HrFNHob3jc3SN8MY9jyP4yI3/mLxAFAh2MCLuhC3MSuRnuUjNKeRO/L+eKv9FaiwIxqHl72K452tYuvcWMmqED/7kJr4w+gJ+3GWkPOc8lvVfixDhkz8rgt+mefhuyxn8uuEdfPLzaSQVPTlsJB1QbQlOLxuBQYP6ol+/fnhn8z088afzUjTiyi8rYLcvC+kpv+INfpLs59dQGoHMojkY5lyOJhVz9LA0ED4hYkdBC3pyZchKSUJmWSMGrVgBL+5RuSjlLL4dvgFhbJ2aDNw8vh2rf7mFkuZ6ZF3fg8/eGoHe3DnTr9887LubiipRFSJ2zMXQ4QPQly//Hne5TZurcxC687PWdfu8gjfe3wb/ci5EFBXh7onv8c5IT/7c+3DjWcRmp+LXb2di/JA+fNkyn1AcnfceNoU34PTnAzDys+OIzfLB8oHrWq/btdm4fWo7Vvx484lNwLH7ZmDG2jNILW1goSdif56CHqvuwvbdo1g0SA3GIxZi3TiqDXwZKBDsSES1SL59BEvefwWTp07F7K824XJUvvBU1x40ISM8AKU63bD62nX8+MEQfqL15yWqzkReaTfYGehDUVsLjjYWUFVkE66STiPsFyyMnYrdtyMQn5CAzxt8EcndLkQNZciOzUU1W6e5AZWlBcjJq4SIW2yqLkZGYiTCwsK4VyJyy2v58obSdERHhAvl6ahg27Y0o7EkTSiLQFxigRBoNqG2LBfJUaw8DAmZhahuFHEPJ0mIud9allpUgfykawgIb0Rh8j2EJxaitpG7Ycf8dlxV3HFl51bw+38cNkNQal4p6oUq8vqiJNzLKEfBdT9YbJkLx5RbSO+9E7Oc+I+JOHL7CJsHh+H796bgPxt8EB6eiUrho8cquY9zl/JhNmYj7nDnTELCHvy3rw1UM09j5QED/M87ALF8+Qr0bWlCeeQ+fHnGBD8fOYIjOxfhlW4p2HwgAqKCJIQVSML4vb3wD4nCoUVT0L3iNrxFvTFr40WER8Xih8meeGf3CSx0l8O0HXEI2zkNRsJhPKvufUejJiwa0cVVENXH4uxlFXz3QT/hU/IyUSDYkRQnIDg0EZUDt+JaaCj2vDccRpJ5KONuRznRaVywVNN6I6rPR3RUFqr4GRWA6sww3Lhxg3vdQlBI642xqa4cWXF3hfIQxKYVo45fOR8x4UFCeRSyq+qFqv46ZIf78eV+t24jtYx7pqstRlIwW+8GgsIjkZKRgMh793E/PA0R4VFILypAVmw68rgTnw9W6wsQE52FysbHN/uJ6iqQzd1oU4tZgzG3XFWI5NQUxIUmQXWYC1ytalFmOgtj+jjDUJlfhXQWamawU85BRIAfwjKr0eerr+DB/ZrLc65iw5TtXFDIqctFyMXD2LQrEGWiKqRc/xXfL5yLD+bPx/z5m3EpOgc19YUI2roCH30+D5/y5UcRx23aVJEG/z1rW9f95EssWrYXl3KquN9kIYIvbMfXc//DrTsfm07cQlp2Io79/A2+/PRjvmzfnTjc2LYRZxLrEbh9PhZs8UNG0XX8MGEz7rPj4n7X4VcO44dt3EMQW36MTJ+l+HTTWSQU13LhbR2itn6IafuiYT51Gz7towjd/h9j2Uh9YW0irtw+Oo9bgb6YWbwR706ah1O5/FX5sUQlhcjSU4SytTH0hDKmPoO7Zvbthm6K8sI87JwW7qEqMxGBiafxPTsHlm3AyaAKWCs0o0pNH11VmlFw6xR2nrqE8KRcVGrZY3BLHI6fPA3vS9cQk1sL4Xby9zn2xVSpBITEFKM0/DyuaY7H0H+oZp08HwoEOxI5VWhrqUI67w5u3olAS1d3eDg7QwcpOPsNd2MLTgN3awPyfbFk4Qkk1zSipToV3ssXYuH69Vi//ifsPBCI3KY6FETexO4V3+AbvnwfLgSmoLyBC+xuncPWnzdiDStfvA4b/eK5ci5wK7qDFYu/4tZdjx83/QL/9Drkx/jg2yWL+bKdR07CLygcgf5BCAoOxIljpxGYFIzTK7jvDkhpfbItuIpli08gofJBcPmo+qJkXNmzGGvPp6CeCwIKI3yxe+9+BMr2x9jB/dDFYyRmj/KAna6csAXpNBzfxHejq3Fl1xqs3rQP53win9ivjlcWgysBhdAdshze16/j+vX1mNHbCqpZl/CjryHmbzmGK3z5F3DnQq+amINYcEwSs+fNw7wPJsHJMA67j0SgviwLCXm1kB36NbYf9cGmuRPQtf4+/KrM4fXBRpzyuYylY9wx5fuf8YGLIkavvoaL68ajrSGbXZ8RkIqKRTTrF1sdjXP+Olj6tofwKSFAbVYYYvLr0dRigEncQ8Nnvc/jwnU2j3wLmptrUMfFhPU1lSjKz+Jrs+ubmyBRXAZRJfcZ/w2tqhoboJxdiFJR0yPXWUlVbdj0/wQHzrPzgnud3YNV73hAXckCg2b9D0e/ex1aUduxbOc5RDa64P31u+HzoTWub5mLZWdTUNXwx37Z7LiqUcvtvKG2ijuuzNYa8idywNj3zRF3Lxx+J29AZ6xXm2sVyb+DAsGORN0CHv0HYoDyPRzfvQ27dp5FcHz+0/tSJR7EysAB2O7tDW/vI9i2YQrsagsQdz8cqdqzcYAv34h5U3tCrzAUe07dQ5OuK16dOhVThzbgyOHbyCqrQ0uyH7wbvPD64q04cfQg3rKrQ0VaFGINJmPemj3YtnopZrz6Cqa8/RpemzQVy1YswpRe5lAQDuNZKGnqwtrWFUW3A5FWWYzk1FJoqtrDqxvVlIgDx+nbcOT4YcxWDcT6+Z/hSBL/WPNYDaXFyFGThry5Afcg9JvazBQkO1vDRlEeMkIZd79Cc24GoiticJU1i529jthSdfQ2UkCdqgG6m+pDPfsODh8/Bt/gBBSpdcUrBiIkBV/BoaNHcSupHOxZ6LnY9MFrWlkIjytEQeh53DEYhX6GNF8P+U11mjf2/HwIBw8cwqFD2xAm8QrG9DCErJwGNLSjcWrnIfx65jyCk/P40cRKJt3QT1cFBbdOYschts01ROWWQ8VlDCY3xuLIqSM4yJcHIVdCEgpWnhhbdAGrdrAy7nXmEm4nlaKxPBv3/bxx6HoiJBRtYWukBlHhPVz1OY5DobVwtHCGjgYXdEr+PhCUhIysFnT0Y3Ga+76jp30QlJj7l6OctV2HwjTmKLbeUsPoPtQfsL2gQLCD0bDugxlL92HVrEGQDDmAvd6+SCxtbUp9nIr4KCT3d0FXYZkR1VajsK4MdV0tYCyU8SrLkV9fgPi4+wjy94d/ripG2etBVlYSLVaDMM+mCn5XT2P7rj24W6gAHVtPjFbNwPmzR7mLii8SSoTv+bsUNWFm7wjXpmgEBMcirawaEtzFzpQmb+30qhKvIzCtGo3NOhi2aBNm9biO28GsnqMZTU3lqKoG6ipLkZUWD1ZHIpKUglxpFRqLuc/4b2hVLy0DjbRcFDQ0/nZT4uItCXVtWNqOxdKtB3HwIPfavg4LpjhDTcEI7pM+wcYl02FTchk7Tl1BdK09pixYje3vuyLv6iZsvJyMyj8NympGc3MZKrmd11WVIys1lj+uJ7PEsBm2yLgfAt/jATAa5QF97uZMyAPaXtPhKYrB3QDu2uufAKN3f8HrXaWhou2GV+a4oT7KH3HFEnCbMBcTnYwgr2QBr4n90NWwCtHseu0fiYySaog0PTDzCw9IJt5HAF+eiFLut6ZoMQpzvx6GphhWxr2C7iE2r4rva5sWc5cvu1egC1cnF1jI5SMi9A5fFtPUD9MGWEBRVh1dx8xCP745VwpKGq4Y/WEvNEZz6+Q3wnnCPLzqbMw9/CvD1LU7ujmbcO80YT/IBfbmWpBnm2m5wEsrAuU9JqOPwcNHNfKSSbRwhPfkGYwdOxbz5s3DgAEDhJIXp7EsC+lZGWjU7w0H7TrcP7wY++M1MfLNIUhacBSN097E1LE9UHf5Y0zeaIQtx+bC+OaHcF/jjBs3/wvTB99TnICz+zbjTOkIrFs+HNpCOdLP4/Mf7sB44BTMGOUItcecp6LoX/H+58sgM+cONo9TBWqLEXVhM9acT4XH7BXwTP8JJ8Kk0G/OMgyziMbO6XtRM/o1vDbZDaIr8zBlkw7W7/8Ebpq38F+pk5jctAmumWexYkQEJkV/A7fCaFw6sx+nwmRha6YA63GfYJK9orD3l8vHx4cPItjTdGcTHx+P6dOnIzg4WCh5scrurcd3+xqgpicFKakSpCWUYsQXP2OgSiC2z/oWYU6D4KRWjuycIkBnEhbO64q4fYdxKjwL8haGUIcZek8YCFedPBz87BeEGBvCTFGeu111w+TPR8Ao6yo2fbYVIVY94aLO7VBFDza9hmOUSQ2Cb19BQHwZatLTUWXXD2M8dJEfE4W0wlqU37+Pule/xOIRSjg81gn3PinD1lFATUkwtr+5BHedh8BFrQK5eQWoV52AJUu7IOz704itt8L4xZbwe/cUGkYMx7hXXaFTfhtL/vMdbqSr4aODWzDJXKndPIn37NkTBw4cgJ2dnVAingICArB8+XJcvHhRKCH/qMo4bJw5F3Wf7cdcdx3ItrNnIUtLS9y9exfa2g/vimKBHkk7kpZKZISdx7bFS7F06RLsDW6AWZc+sNUxg72zCKE+27Fy6VIcia2GfJMkqwiBVp/Z+I/KFSziypcuXYkNm28iX80ATj16wjjlCBbz5b/gxI14lOo4YrytFBfYbceSJaycex29i9KaRpSGHMDyZUux/EgkFOVcYKZfgYTLm7F09UYculkCTTUr6Ov88ZlCF3Y9mhF+eRdWc993KKoCsiKpp/7oZNT1YGSgg7L7QchotkA3s/YRBJJ/l7rzqxhmJYeWhlrU1irAffYqjLGRgqJGD4z+dAJsZGshrWGOwVM+xrR+VlCUN4TrK0Mw0NMMcrVsm3qIWBJbtW549ZORcFCWRgNf3sDXDMoa9sfshdPgIMfKuFcdS97Mrd/SBFF9HV8moeuMgb3cYasthQahTNZ2LKb1toCSnCZ6vvU1xtqys0oS8irdMeazybDjjktS1RgDX/sE0wfaQAlqsPbqBc8BtlxwqgOn8f3g2tWQK+dwx+aumwyZ3pPgridHF18ifrjzzbj/XIzuqgJpOgHaDaoRbKOXWSMI1CAvLhT+F0ORzS2pWrigb28P2OjIoTo1AOf97yO7pB42gwZBPqUFTqMcoSUrheLQo9jvn8ttIQd1XVeMeN0dWhU5iAr0xc0YNs5RBw6eveHpYQHV4licvxaEhOwytkPAZiBmDuoKiSQf7L2exo8ck1VwxuiZrmi6expnQgq5lVRgZOuBgaNs0ZIQgsRCCRg5esJMjTvi9EBc8AtHZnEdrLn/ZwoZkug+zAHa8jm49mMybD4ZAN3KFASfLoL1m71gABEyg45g+45foTjxF8wdadzapNAOUI0geS5l4fj+7eWQ/fpnvO9mAPl2dCOkGsFWVCMo3sS1RpACwTZ6uYGgGGgoQbj3IRz3r8KIZQvgxZrx2gkKBMlzqU7FzQv5MBnhDHPl9lUjSIFgKwoExRs1DRPSHkjJw8hpECa8MRXd21EQSMhzU7JA/8m9YNnOgkBCiHij6xFpX6QUoWPdBa7u5lAVigghhBDy76Cm4TaipmHxRU3DpLOipuFWQUFBmDBhAt9ESMRPbGwsEhISoKWlJZSIBwoE24gCQfFFgSDprCgQbFVTU4OUlBQ0Nz/vfGodD5ttJDExEcOHD4eZmZlQKl6kpKRgb2/P/ylOKBBsIwoExVdnDgTZDaBXr15QVaUGeXFUUVGBwMBA2NjYCCVE3Jw5cwYRERGYMmUKbG1thVIiDigQbKOpU6fC19cXEhI0PZS4YafK+PHjsXPnTqGk82hqakJ5eTn/dxQ3O3bsQF5eHhYtWiSUiB92PVNTUxO7mhDyGwoExRcFgm0kEonEstngAfZzuXTpEl8ztn//fqFUfEhKSkJaWlpYIp3BTz/9hJycHKxcuVIoIUT8UCAovigQJG3CgmAWCO7btw+HDx8WSgnpuCgQJIQCQXFG6WMIIYQQQsQUBYKEEEKIGGINgg0NDfy82uxP1vWpvr7+4TI1GIoHCgTJM2EXheTkZP7FmtGqqqqQlJSE1NRUlJUJ8xITQgjpMKqrq/kp1Vif75s3b/JNw97e3vxyeHg4HxSSzo/6CJJnUlBQgLfffpsfXVlZWYmSkhKYm5tDX18fH374IUaNGiWsSUjHQn0EibhiD/Tbtm3DkiVL+KDwAWVlZWzatInvL6igoCCUks6KagTJM9HV1YWTkxP/lMhqBUtLSxEZGcnXFDo7OwtrEUII6ShYwOfl5QV3d3ehpBXLk+vh4UFBoJigQJA8s/fffx9GRkbCEvi8Y6wm0MDAQCghhBDSkXTp0oWfTeRBMnkNDQ2MGzeOb/Eh4oECQfLM2LRDs2bN4t+zfHpsPs4xY8bwy4QQQjoeVivYv39/uLm58ct9+/aFp6cn1QaKEQoESZvMnDkTFhYWUFJS4p8aaUoqQgjp2BwdHTF48GBYW1vzrTzsIZ+IDxosQtqEpRcYNGgQwsLCMHnyZD4oJKQjY6Mm2Vy7Q4YMEUoIET/p6en8A/6cOXP4wJCIDwoESZuwmUUOHDjAp45hfQQJ6ehu377Nz7NMI9+JOGNNxC4uLnwQSM3C4oUCQdJm7CdTU1PDPz0S0tFR+hhCiDijPoKkzSQkJCgIJIQQQjoBCgQJIYQQQsQUBYKEEEIIIWKKAkFCCCGEEDFFgSAhhBBCiJiiQJAQQgghRExRIEgIIYQQIqYoECSEEEIIEVMUCBJCCCGEiCkKBAkhhBBCxBQFgoQQsdPQ0ICCggLk5+ejsrIS1dXV/Hv2qq2tFdYihJDOj+YaJoSIndTUVGzbto0PBmNjY/lA0M3NjZ868Y033kDPnj0hKUnPyYSQzo+udIQQsSMtLY2ioiLs3r0bd+7cQUREBHbt2oWYmBhISUlREEgIERt0tSOEiB0DAwOMGTMGhoaGQgmgqqqKkSNHwt7eXighhJDOjwJBQojYYTWCPXr04AO/B7V/7u7u6NevH5SVlfllQggRBxQIEkLEkpGREUaMGAETExOoq6tj6NCh6NKli/ApIYSIBwoECSFiidUKurq68gEgGxwycOBAfrAIIYSIExo1TAgRWyKRCNevX+cHjowbNw6KiorCJ4QQIh4oECSEPLe0tDRERUUhLy+Pz8vH8vRlZWWhqalJWKP9Yqlj2HGywSLtHeu/qK2tDRkZGf5PfX19vjmbDXqRkJAQ1iKEkGdHgSAh5G+Jjo5GQEAAwsLC+JQrLDBRUVGBrKwsv8wCKwpO/lkswGYJr1ngWlNTwwexhYWFkJOTg5OTEwYPHsz3eSSEkGdFgSAhpE3i4uJw/PhxPhmzqakp/2LpWHR1dR8Ggqz/HQsEKR/fP4sFgg9qMFlAyGpf2b9Dbm4uMjIykJiYiG7dumHSpEkwNjYWtiKEkCf7y0DwwcUlPT2db/YpLS19eCFiT/2sc7WGhgbfRGFmZgYbGxv+xkAI6VxYwLF//37+euDs7MwPtGAjbx80VZKXp66uDsXFxcjMzERgYCDCw8PRq1cvvP3221BQUBDWIoSQP3tsIMjm22RNPqGhoXyzQ1vp6OjwN4nevXtDT09PKCWEdFT379/H4cOH+cCP5dozNzfna/+oxq99YZfzkpISvs8mGwTDruUfffQRPZwTQp7okUAwOzsbly5dQlBQkFDy/Dw8PDB8+HD+BkII6VhYzf/ly5dx9epVPgDs27cv1NTUKABs55qbm/kawhs3bsDf3x9TpkxBnz59hE8JIeQ3DwPBU6dO4eLFi3zhv4Elbp0wYYKwRAjpCM6dO8fPxTt+/Hh+Jg7W/490DOzSzpqM2b/ftWvX+AdyFsgTQsjvSaSnp7ccOHCA7wP4b2N9CKdPn07NFIR0AH5+fnwAMXbsWH5EKtUCdkysdpD9W7Km4okTJ/IBPSGEPCBVX1//DRsA8iKUl5fzfQ/ZCEP2IoS0T6xP4IULF+Dl5cU3KVIamI6L/duxlDIVFRV8MzF7zwb4EUIII8n6AL1IbH9bt27lmysIIe0P6yvs6+vLBwxDhgwRSklHxjI8jBw5kp9T+cyZM3zaGUIIYV5aW8+ePXv4RLSEkPajsbGRTz3C8tKxJmHSebCk0yywf9Ayw5qMCSHkpXb62bFjB5+nkBDy8rHBBex8DA4OxoABA/g0UKRzcXBw4Ptos6Z/lheWEEJeaiDImonZQBVCyMvHZq14MF8wa0YkndOoUaNQVFSEkJAQqhUkhLzcQJBho5VZ6hpCyMvFBo1FRkbyieDZFHGkc2KzQLHZYNgsJKyZmBAi3qRcXV2/Ed4/EzafKEsOraWl9fDF0kqwCdD/rqSkJLi4uPBzkxJCXjzWLMweys6ePcuneNLU1BQ+6chqkHLrAq6HRCM2NhaxiSnIbtaAoVwZovxvI75AChrGGpBHI0ozYpCSXQYJJRVUJ4cgMPAuwqO4bdh2lfIw11WFjFTnSZ/Dan9Z8zBL6cWu6YQQ8dWmQJAFfAsWLOA7HLNagwcvNsk5y1H1PFjiUzZ/KSHkxWODRO7du4e4uDi8+eabnSRnYDYOvzMFP8fXoyQtHvEpGSjScEAPmRj89P7H2B9bD7O+XrBVqUO090Ycu5EOZfuuyDmyCltO3UR0WjZSE8Nw3j8KIik9WNnqQ0Gyc6TRUVZWho+PD99f0MLCgtIDESLG2nS1Z5OYP64DOStjnz0PNq0dmxeTEPLisQcxViNoZWXVyZqFrfDG93v4LAV7tv6EleNtuTI5aOsbwkA7HdeO3EF2beuav9FDv7cWYv02tt12rBvZgEPLV8MnoQ5/mpi9g2LXbBbss3mJRSKRUEoIEUdPrBFkzb8sC/3va/9YsPekKaasra35msEH69rY2PAdktuSr4qlN2Cj2gghL1Z1dTVu3brFBwjcNUEo7ejKELxvMy5lVSAt5DaC7+VBxcEOihVpSIzIgXGfvqiIDEaxkQMMi0IQV6wIS1cXNEcEoEjLFg52ZlCTkYeRkyNEZ5bigtrreNVJHZ2l8ow9fCsqKsLOzo6/9hJCxNNjawSnTp2KJUuW8AGdra3tw5eSkpKwxp+xpobfr8tmI2DfMW7cOGGNvxYaGiq8I4S8SKxWiA0W6ZT9xbjIjTV9PtL8KaMGi15e8HSQQqLPLaQ/tYuzOWycpCElJSx2EqwfKHsAYLXBhBDx9adAkOUPGzhwoLDUOstAQkJCm15smwdYqoKePXsKS09XWFhIeQUJeQlYGpH6+nrIy8sLJZ2FEYbO+QpfffUlPv1oEhx/Nx5NRt0cPbt3gWJ5CC5GFgilj5OM2GAD2FtqckGlUNQJsNpANmjkRc8uRQhpXx4JBFnfoAkTJvDvy8rKsHz5cv61bt26Nr3YNt9+++3DZuHJkyfzfz6LxMRE4R0h5EVhU5CxGn/xSieiCCNnT7h3lUN2wHVEP2HK9fhTK7G/zB0e1jKdKQ7kr88s8JeRkRFKCCHi6JFA0NjY+GGNAEsj8fuavbZiOarYqDSGzW/5rLMUsA7rhJAXiz0Eamho8P16O5cE7PzvRL6/88Rpb+PjozFCeSsZNTP06+mBroYKyH3YPJyLq9sWYfa01u1m+2jhvyveQ2+dx/eP7qjYQBEW/FP/QELE2yODRVj/INYvkLl69SqKi4v5938Xu8B4enry79m8wuzC81fYDalv377CEiHkRWDNg8nJycjJyXmka0jHJgcDx55wdXHju6ewl0sXG1gZGcK0iyMsDLWgKC0JeXVD2LoNxIA+HuhiogMDC1t0dXKDm1vrNv0Hj8YoDysocet2Jr/++is/OM/R0bGTpAsihPwdTzz7WYLZJ2E1h+xmwV6GhoZC6Z/9/jueNU8V67BOCHmxWEsAyyfHkrt3nnQiCjB2GchnPuBfA/vB01ITskpaMHGwhfaDijB5DZh34YK+LubQkJeFlkV39OovbMNe3Ywg18mCQBbws+4AbEKAzpUuiBDSVm2+uk2aNAmLFy/mRxaz19KlSzF+/Hjh0+fHRrERQl4sFgywhzoWEMbHxwulpLOKiIjgu+sYGBgIJYQQcdWmQLB79+4YNmyYsPQbNkE9y0X1T6ARbIS8HGz+WdZU6O/vL5SQzuru3bt84M/yxRJCxNsjgSBL/TJnzhz+xd7/0dOmgHNzcxPePR/WXEEIefHYYBHWXywwMJCfco50TmwgX0VFBT+9HMv/SggRb22qEXxaQmlV1d8l6BJkZWU9TCnD3j+Lp+2DEPLvYc3DLBBkCeHZQALSOZ08eZKvCWQzRdEcw4SQNgWCT0v2/Li0LzU1NQ+TTLP3z4LVShBCXg4WILDMASEhIUhLSxNKSWcRHBzMD8hzd3enay0hhPdIIMgyzT+YIo69/6Nr1649djAHa2a4ceOGsPR89PX1hXeEkBeNpRFhfYHt7e35miOafqzzYOm7WP9PlvXBxcVFKCWEiLtH8giy9BHz58/nawSio6P/lEeQ9Rti+QBZygHWFMxuEmy9bdu28cHgP4HNUWxpaSksEUJeNAUFBX4e2tjYWOTn58PKyopSjHRwbBYRb29v1NbW4tVXX+WT/BNCCPNIIMgCvAcJpe/cufPYhNKsiZc1L1y6dAmXL19GaGgof3F5gDU3vPvuu3jjjTf4gI5NGdeWWgWWikZNTU1YIoS8DOw8Zv11WRMxO3/ZCFOaiqxjqqqqgq+vL9+1h6X/YjWChBDywCNNw79PJPt3J59nQSBrWmK1Cj169MCbb74pfPLXWF4rNpKNEPLysfPXy8uLDwZZtxD2YPi0RPOkfWlubkZeXh7OnTvHJwofO3Ys3+pDCCG/90ggyJqBHvi7fUjMzMyEd62sra2Fd3/N1dVVeEcIaQ88PDwwdOhQhIeH4/Tp03xAQall2r+Ghga+286JEyf4fzPW0sL6fRJCyB890jTMLvDsiZHNOWxiYsI3B7EEz6w/IGs2/uPrcU3HLCEtS0z7ABsxHBQUJCw93VtvvUV5rQhpR9jgETaSmNXUs8Di/v37/KhTNo+4iooKzVHbzrBaQDYzDBu8FxAQwP8bzZw5k5qDCSFPJPHee+890tbDOhEvWrSIv4D8FZZ4+o9Y3yLWHMw6mLML0oEDB55pIAmreXjnnXeEJUJIe8POY9bXjNUOsq4fbDYh9jI3N6cHuJeMPZSzdD8sWGepvFi/7f79+2PAgAF80E4IIU/yp0CQYfNPsqYE1kfoaQlHHxcI/l1Lliyh6Y4I6QByc3Ph5+f3cE5iNoiEpX1ig8NkZWXpPH4B2AAelg6mrKwMqamp/J+sOZj182Y5AlkQ+Lgk/4QQ8kePDQQfYE28LI3EkzxuGrq/Y8SIEZgwYYKwRAjpCNhUZawGimUGYIEIa5Zkg0loQMmLwR7S2YtNy6mnpwcbGxu+bzcFgISQtnhqIPgisMElCxcuFJYIIR1RUVER3zTJ+hmzGkPy72JZHVg3HpZqi/XffJauPIQQ8jgvNRBkT7ILFiyglDGEEEIIIS/BSw0EWR9DmuqIEEIIIeKAdZ1hLSftqQvNSwsEZ8yYAU9PT2GJEEIIIaRzY4O6Vq5cKSy1D5KsefZFYvtjNYEUBBJCCCFEnLS/wXTA/wEcdP8IQY4cLQAAAABJRU5ErkJggg==;" vertex="1" parent="WIyWlLk6GJQsqaUBKTNV-1">
          <mxGeometry x="120" y="290" width="282" height="220.5" as="geometry" />
        </mxCell>
        <mxCell id="y0BUq7JHcD8MuV5Xrz9I-3" value="" style="endArrow=none;html=1;rounded=0;" edge="1" parent="WIyWlLk6GJQsqaUBKTNV-1">
          <mxGeometry width="50" height="50" relative="1" as="geometry">
            <mxPoint x="140" y="90" as="sourcePoint" />
            <mxPoint x="700" y="90" as="targetPoint" />
          </mxGeometry>
        </mxCell>
        <mxCell id="y0BUq7JHcD8MuV5Xrz9I-4" value="" style="endArrow=none;html=1;rounded=0;entryX=0.5;entryY=1;entryDx=0;entryDy=0;" edge="1" parent="WIyWlLk6GJQsqaUBKTNV-1" target="WIyWlLk6GJQsqaUBKTNV-3">
          <mxGeometry width="50" height="50" relative="1" as="geometry">
            <mxPoint x="420" y="90" as="sourcePoint" />
            <mxPoint x="460" y="200" as="targetPoint" />
          </mxGeometry>
        </mxCell>
        <mxCell id="y0BUq7JHcD8MuV5Xrz9I-5" value="" style="shape=process;whiteSpace=wrap;html=1;backgroundOutline=1;" vertex="1" parent="WIyWlLk6GJQsqaUBKTNV-1">
          <mxGeometry x="80" y="120" width="120" height="60" as="geometry" />
        </mxCell>
        <mxCell id="y0BUq7JHcD8MuV5Xrz9I-6" value="" style="endArrow=classic;html=1;rounded=0;entryX=0.5;entryY=0;entryDx=0;entryDy=0;" edge="1" parent="WIyWlLk6GJQsqaUBKTNV-1" target="y0BUq7JHcD8MuV5Xrz9I-5">
          <mxGeometry width="50" height="50" relative="1" as="geometry">
            <mxPoint x="140" y="90" as="sourcePoint" />
            <mxPoint x="180" y="110" as="targetPoint" />
          </mxGeometry>
        </mxCell>
        <mxCell id="y0BUq7JHcD8MuV5Xrz9I-7" value="" style="endArrow=classic;html=1;rounded=0;entryX=0.5;entryY=0;entryDx=0;entryDy=0;" edge="1" parent="WIyWlLk6GJQsqaUBKTNV-1">
          <mxGeometry width="50" height="50" relative="1" as="geometry">
            <mxPoint x="320" y="90" as="sourcePoint" />
            <mxPoint x="320" y="120" as="targetPoint" />
          </mxGeometry>
        </mxCell>
        <mxCell id="y0BUq7JHcD8MuV5Xrz9I-8" value="" style="endArrow=classic;html=1;rounded=0;entryX=0.5;entryY=0;entryDx=0;entryDy=0;" edge="1" parent="WIyWlLk6GJQsqaUBKTNV-1">
          <mxGeometry width="50" height="50" relative="1" as="geometry">
            <mxPoint x="700" y="90" as="sourcePoint" />
            <mxPoint x="700" y="120" as="targetPoint" />
          </mxGeometry>
        </mxCell>
        <mxCell id="y0BUq7JHcD8MuV5Xrz9I-9" value="" style="endArrow=classic;html=1;rounded=0;entryX=0.5;entryY=0;entryDx=0;entryDy=0;" edge="1" parent="WIyWlLk6GJQsqaUBKTNV-1">
          <mxGeometry width="50" height="50" relative="1" as="geometry">
            <mxPoint x="520" y="90" as="sourcePoint" />
            <mxPoint x="520" y="120" as="targetPoint" />
          </mxGeometry>
        </mxCell>
        <mxCell id="y0BUq7JHcD8MuV5Xrz9I-10" value="" style="shape=process;whiteSpace=wrap;html=1;backgroundOutline=1;" vertex="1" parent="WIyWlLk6GJQsqaUBKTNV-1">
          <mxGeometry x="260" y="120" width="120" height="60" as="geometry" />
        </mxCell>
        <mxCell id="y0BUq7JHcD8MuV5Xrz9I-11" value="" style="shape=process;whiteSpace=wrap;html=1;backgroundOutline=1;" vertex="1" parent="WIyWlLk6GJQsqaUBKTNV-1">
          <mxGeometry x="460" y="120" width="120" height="60" as="geometry" />
        </mxCell>
        <mxCell id="y0BUq7JHcD8MuV5Xrz9I-12" value="" style="shape=process;whiteSpace=wrap;html=1;backgroundOutline=1;" vertex="1" parent="WIyWlLk6GJQsqaUBKTNV-1">
          <mxGeometry x="640" y="120" width="120" height="60" as="geometry" />
        </mxCell>
      </root>
    </mxGraphModel>
  </diagram>
</mxfile>
